<svg width="96" height="99" viewBox="0 0 96 99" fill="none" xmlns="http://www.w3.org/2000/svg">
<path d="M62.1149 38.3454C60.5774 36.7493 58.719 35.5025 56.6604 34.6881C55.1885 33.986 53.5838 33.6107 51.9549 33.5865L47.7307 33.5173C40.7578 33.4032 35.0152 38.9766 34.9013 45.9628C34.9013 45.9628 34.9013 45.9662 34.9013 45.968L34.8064 51.8474C34.6925 58.8353 40.254 64.5903 47.2252 64.7044C47.2252 64.7044 47.2286 64.7044 47.2303 64.7044C47.2303 64.7044 48.7385 64.7338 49.9912 64.7546C50.7988 64.7667 51.4993 64.7771 51.6201 64.7719C52.9126 64.7753 54.1964 64.5592 55.4163 64.1338C57.801 63.4179 59.9769 62.1365 61.7629 60.3986C66.4684 55.823 72.8253 53.5992 79.1201 53.7012C80.7249 53.7271 82.3245 53.907 83.8964 54.2355C84.4779 51.2664 84.5263 48.2177 84.0414 45.2313C82.4642 45.5063 80.8647 45.6308 79.2651 45.6048C72.9686 45.5028 66.6841 43.0732 62.1183 38.342" fill="white"/>
<path d="M65.3996 64.1237C63.0477 66.415 60.1902 68.1148 57.0583 69.0884C55.3483 69.6798 53.5537 69.9841 51.7453 69.9911C51.5607 69.9911 51.1863 69.9911 49.9525 69.979L47.1813 69.9357C37.3577 69.7818 29.5082 61.6924 29.6308 51.846L29.7119 45.9665C29.8516 36.1098 37.9289 28.2279 47.7645 28.3524L51.9886 28.4112C54.2991 28.4406 56.5769 28.9559 58.6769 29.9225C61.3635 31.005 63.7914 32.6409 65.8034 34.7264C69.2165 38.2437 74.1446 40.3015 79.3247 40.3724C80.4394 40.3862 81.5541 40.3084 82.655 40.139C82.2254 39.0271 81.7181 37.9463 81.1365 36.907L76.305 28.2607C71.8807 20.3269 63.5705 15.3605 54.5028 15.2308L44.6154 15.0942C35.5442 14.9697 27.0959 19.7044 22.4508 27.5137L17.3897 36.0268C12.7463 43.8378 12.6152 53.5389 17.0446 61.4728L21.8762 70.119C26.3022 78.0511 34.6141 83.0175 43.6819 83.1455L53.5675 83.2821C62.6387 83.4083 71.087 78.6771 75.7321 70.8678L80.7914 62.3529C81.3988 61.3327 81.932 60.2709 82.3893 59.1746C81.2918 58.974 80.1806 58.865 79.0659 58.8477C73.8893 58.7751 68.9145 60.6963 65.4065 64.1185" fill="white"/>
<path d="M94.0958 58.2185C91.1245 55.9255 87.6527 54.3709 83.9669 53.6809C83.6597 55.3981 83.1766 57.0789 82.5243 58.6958C85.4302 59.1678 88.1858 60.3161 90.5688 62.0488L90.5481 62.1145C87.7959 70.9095 82.3604 78.6168 75.0044 84.1504C55.7266 98.5862 28.4216 94.6296 14.0167 75.3104C8.38974 67.764 5.34933 58.5972 5.3476 49.1762C5.35105 25.0566 24.8635 5.5074 48.9314 5.50913C58.3184 5.50913 67.4551 8.54916 74.9802 14.1744C82.3293 19.6976 87.7683 27.3894 90.5291 36.1705C90.5447 36.2189 90.5567 36.2604 90.5671 36.2967L90.5309 36.3244C88.1582 38.0468 85.4164 39.1863 82.5243 39.6532C83.1766 41.2735 83.6597 42.9578 83.9686 44.6767C87.4663 44.0213 90.7724 42.586 93.642 40.4781C96.4909 38.3165 95.7817 35.6033 95.478 34.6246C89.2988 14.7468 70.7924 0.314453 48.9211 0.314453C21.9939 0.314453 0.164062 22.1912 0.164062 49.1762C0.164062 76.1612 21.9939 98.038 48.9211 98.038C70.8165 98.038 89.3402 83.5745 95.4987 63.6604C96.2148 61.9658 96.2631 59.9858 94.0958 58.2185Z" fill="white"/>
<path d="M79.3249 40.3636C74.1482 40.2927 69.2166 38.2349 65.8035 34.7176C63.7898 32.6356 61.3602 31.0014 58.6753 29.9224C56.577 28.954 54.2993 28.4404 51.9888 28.411L47.7647 28.354C37.9359 28.2312 29.8621 36.1027 29.7154 45.9526L29.6343 51.832C29.5067 61.6801 37.3544 69.7747 47.1814 69.9304L49.9526 69.9736C51.1881 69.9909 51.5609 69.9909 51.7455 69.9874C53.5539 69.9788 55.3467 69.6727 57.0567 69.0848C60.1886 68.1129 63.0478 66.4131 65.3997 64.1236C68.9095 60.6962 73.8894 58.7767 79.066 58.8476C80.1842 58.8632 81.2989 58.9738 82.3981 59.1744C83.071 57.5645 83.5783 55.8889 83.9114 54.1752C82.3394 53.8518 80.7415 53.6789 79.1368 53.6564C72.842 53.5699 66.4989 55.8093 61.7916 60.4005C60.0091 62.1418 57.8367 63.4284 55.4537 64.1512C54.2337 64.5818 52.9499 64.7997 51.6575 64.798C51.5367 64.798 50.8361 64.798 50.0286 64.7841L47.2677 64.7426C40.2948 64.6458 34.7213 58.9047 34.8162 51.9168L34.8973 46.0286C34.9939 39.0425 40.7244 33.4553 47.6956 33.5521L51.9215 33.6092C53.5521 33.6282 55.1586 34 56.634 34.6951C58.6943 35.5061 60.5561 36.7495 62.097 38.3404C66.6749 43.0561 72.968 45.4701 79.261 45.5583C80.8623 45.5808 82.4619 45.4511 84.0391 45.1709C83.7526 43.4469 83.2902 41.7591 82.6586 40.1302C81.5577 40.2996 80.443 40.3775 79.3283 40.3636" fill="#F33A3D"/>
</svg>
