<svg width="23" height="23" viewBox="0 0 23 23" fill="none" xmlns="http://www.w3.org/2000/svg">
<path d="M15.914 12.5337L12.1515 20.9795C11.4031 20.9795 10.6853 20.6829 10.1561 20.1549C9.62693 19.627 9.32963 18.9109 9.32963 18.1642L9.32963 14.4105L4.00566 14.4105C3.73297 14.4136 3.46286 14.3575 3.21406 14.2461C2.96525 14.1347 2.7437 13.9706 2.56475 13.7653C2.3858 13.56 2.25374 13.3184 2.1777 13.0571C2.10166 12.7958 2.08348 12.5211 2.1244 12.2521L3.42247 3.80631C3.4905 3.35877 3.71836 2.95084 4.06407 2.65767C4.40978 2.36451 4.85004 2.20587 5.30373 2.21099L15.914 2.21099M15.914 12.5337L15.914 2.21099M15.914 12.5337L18.7359 12.5337C19.2349 12.5337 19.7134 12.3359 20.0662 11.9839C20.419 11.632 20.6172 11.1546 20.6172 10.6568L20.6172 4.08784C20.6172 3.59007 20.419 3.11268 20.0662 2.76071C19.7134 2.40873 19.2349 2.21099 18.7359 2.21099L15.914 2.21099" stroke="white" stroke-width="2.99915" stroke-linecap="round" stroke-linejoin="round"/>
</svg>
