<svg width="30" height="30" viewBox="0 0 30 30" fill="none" xmlns="http://www.w3.org/2000/svg">
<path d="M16.0213 3.40313C15.4448 2.86876 14.5542 2.86876 13.9823 3.40313L3.48228 13.1531C3.03228 13.575 2.88228 14.2266 3.10728 14.7984C3.33228 15.3703 3.88072 15.75 4.49947 15.75H5.24947V24C5.24947 25.6547 6.59478 27 8.24947 27H21.7495C23.4042 27 24.7495 25.6547 24.7495 24V15.75H25.4995C26.1182 15.75 26.6713 15.3703 26.8963 14.7984C27.1213 14.2266 26.9713 13.5703 26.5213 13.1531L16.0213 3.40313ZM14.2495 18H15.7495C16.9917 18 17.9995 19.0078 17.9995 20.25V24.75H11.9995V20.25C11.9995 19.0078 13.0073 18 14.2495 18Z" fill="white"/>
</svg>
