<svg width="32" height="32" viewBox="0 0 32 32" fill="none" xmlns="http://www.w3.org/2000/svg">
<path d="M16 30C24.8375 30 32 23.2812 32 15C32 6.71875 24.8375 0 16 0C7.1625 0 0 6.71875 0 15C0 18.3937 1.2 21.5187 3.225 24.0312L0.175 29.8C-0.125 30.3625 -0.0312499 31.05 0.4 31.5187C0.83125 31.9875 1.5125 32.1312 2.09375 31.8812L9.49375 28.7125C11.4812 29.5375 13.6812 30 16 30ZM8 13C9.10625 13 10 13.8938 10 15C10 16.1063 9.10625 17 8 17C6.89375 17 6 16.1063 6 15C6 13.8938 6.89375 13 8 13ZM16 13C17.1063 13 18 13.8938 18 15C18 16.1063 17.1063 17 16 17C14.8938 17 14 16.1063 14 15C14 13.8938 14.8938 13 16 13ZM22 15C22 13.8938 22.8937 13 24 13C25.1063 13 26 13.8938 26 15C26 16.1063 25.1063 17 24 17C22.8937 17 22 16.1063 22 15Z" fill="black"/>
</svg>
