<svg width="37" height="38" viewBox="0 0 37 38" fill="none" xmlns="http://www.w3.org/2000/svg">
<path d="M10.1582 17.7061L16.9755 2.40332C18.3315 2.40332 19.632 2.94074 20.5908 3.89735C21.5497 4.85396 22.0884 6.1514 22.0884 7.50425V14.3055H31.7347C32.2288 14.2999 32.7182 14.4016 33.169 14.6034C33.6198 14.8053 34.0213 15.1025 34.3455 15.4745C34.6697 15.8465 34.909 16.2844 35.0468 16.7578C35.1846 17.2312 35.2175 17.7288 35.1434 18.2162L32.7914 33.519C32.6682 34.3299 32.2553 35.069 31.6289 35.6002C31.0025 36.1314 30.2048 36.4188 29.3828 36.4095H10.1582M10.1582 17.7061V36.4095M10.1582 17.7061H5.04533C4.14131 17.7061 3.27432 18.0644 2.63508 18.7021C1.99584 19.3399 1.63672 20.2048 1.63672 21.1067V33.0089C1.63672 33.9108 1.99584 34.7758 2.63508 35.4135C3.27432 36.0513 4.14131 36.4095 5.04533 36.4095H10.1582" stroke="white" stroke-width="2.99915" stroke-linecap="round" stroke-linejoin="round"/>
</svg>
