<svg width="436" height="55" viewBox="0 0 436 55" fill="none" xmlns="http://www.w3.org/2000/svg">
<path d="M52.1458 53.2198H60.6601V1.54667H49.797L31.0068 30.9064H30.7132L11.0422 1.54667H0.472656V53.2198H8.98697V13.2906L26.0156 40.5951H35.1171L52.1458 13.2906V53.2198ZM107.049 5.95063C106.461 4.48264 105.874 3.01466 105.287 1.84027H89.1391C87.3775 5.65703 86.2031 8.59301 85.6159 10.3546C77.3951 29.4384 71.2296 43.8247 67.4128 53.2198H76.808C79.1567 47.3479 81.2119 43.2375 82.3863 40.3015H112.627C114.976 46.1735 117.031 50.2838 118.205 53.2198H127.6C119.38 34.136 113.508 19.7497 109.397 10.3546C108.223 8.8866 107.636 7.41862 107.049 5.95063ZM85.6159 31.7872C87.0839 28.264 88.5518 24.7409 90.0198 20.9241C91.4878 17.4009 92.9558 13.8778 94.7174 10.061H99.7086C103.819 19.4561 106.755 26.796 108.81 31.4936H85.6159V31.7872ZM427.07 1.54667V40.3015C411.803 22.9793 400.352 10.061 392.719 1.54667H384.204V53.2198H392.719V14.7586C407.986 31.7872 419.436 44.7055 427.07 53.2198H435.584V1.54667H427.07ZM221.845 0.959473C204.816 0.959473 191.017 12.997 191.017 27.6768C191.017 42.3567 204.816 54.3942 221.845 54.3942C238.874 54.3942 252.673 42.3567 252.673 27.6768C252.673 12.997 238.874 0.959473 221.845 0.959473ZM221.845 45.8799C209.514 45.8799 199.532 37.6591 199.532 27.6768C199.532 17.6945 209.514 9.4738 221.845 9.4738C234.176 9.4738 244.158 17.6945 244.158 27.6768C243.865 37.6591 233.883 45.8799 221.845 45.8799ZM346.33 0.959473C329.302 0.959473 315.503 12.997 315.503 27.6768C315.503 42.3567 329.302 54.3942 346.33 54.3942C363.359 54.3942 377.158 42.3567 377.158 27.6768C377.158 12.997 363.359 0.959473 346.33 0.959473ZM346.33 45.8799C333.999 45.8799 324.017 37.6591 324.017 27.6768C324.017 17.6945 333.999 9.4738 346.33 9.4738C358.661 9.4738 368.644 17.6945 368.644 27.6768C368.644 37.6591 358.661 45.8799 346.33 45.8799ZM281.445 1.54667H258.838V53.2198H281.445C297.3 53.2198 310.218 41.7695 310.218 27.3832C310.511 13.2906 297.593 1.54667 281.445 1.54667ZM281.445 44.7055H267.353V10.3546H281.445C292.602 10.3546 301.704 17.9881 301.704 27.6768C301.704 37.072 292.602 44.7055 281.445 44.7055ZM166.649 31.7872H170.466C171.934 31.7872 173.402 31.4936 174.576 31.2C175.75 30.9064 177.218 30.3192 178.393 29.4384C179.567 28.5576 180.741 27.6768 181.622 26.796C182.503 25.9152 183.384 24.7409 183.971 23.2729C183.971 22.9793 184.265 22.6857 184.265 22.0985C184.265 21.8049 184.558 21.5113 184.558 20.9241C184.558 20.6305 184.852 20.0433 184.852 19.7497C184.852 19.4561 184.852 19.1625 184.852 18.5753C184.852 18.2817 184.852 18.2817 184.852 17.9881C184.852 17.9881 184.852 17.6945 184.852 17.4009V16.2265C184.852 14.1714 184.558 12.1162 183.677 10.3546C182.797 8.59301 181.916 7.12502 180.448 5.36343C178.98 3.89545 177.218 2.72106 175.457 2.13387C173.695 1.25307 171.934 0.959473 169.585 0.959473H133.179V52.6326H141.693V31.2H156.96C159.015 43.5311 170.759 52.9262 184.558 52.9262V44.4119C176.337 44.7055 168.704 39.1271 166.649 31.7872ZM142.574 23.2729V10.3546H170.466C172.227 10.3546 173.695 10.9418 175.163 12.1162C176.337 13.2906 177.218 14.7586 177.218 16.8137C177.218 18.8689 176.631 20.0433 175.163 21.5113C173.989 22.6857 172.521 23.5665 170.466 23.5665H142.574V23.2729Z" fill="white"/>
</svg>
