<svg width="160" height="160" viewBox="0 0 160 160" fill="none" xmlns="http://www.w3.org/2000/svg">
<path d="M80.0178 38.978C57.3519 38.9066 38.9336 57.2576 38.8622 79.9286C38.7909 102.6 57.1378 121.022 79.8037 121.093C102.47 121.165 120.888 102.814 120.959 80.1428C121.031 57.4718 102.684 39.0494 80.0178 38.978ZM79.8037 53.4018C94.5098 53.3304 106.467 65.2192 106.539 79.9286C106.61 94.638 94.7239 106.598 80.0178 106.67C65.3118 106.741 53.3542 94.8522 53.2828 80.1428C53.2114 65.4334 65.0976 53.4732 79.8037 53.4018ZM113.142 37.3C113.142 32.0161 117.426 27.7318 122.708 27.7318C127.991 27.7318 132.274 32.0161 132.274 37.3C132.274 42.584 127.991 46.8682 122.708 46.8682C117.426 46.8682 113.142 42.584 113.142 37.3ZM159.438 47.011C158.831 34.1939 155.904 22.8406 146.516 13.4866C137.165 4.13255 125.814 1.20495 112.999 0.562312C99.7925 -0.187437 60.2075 -0.187437 47.0006 0.562312C34.222 1.16925 22.8712 4.09684 13.4835 13.4509C4.09593 22.8049 1.20468 34.1582 0.562186 46.9753C-0.187395 60.1852 -0.187395 99.7791 0.562186 112.989C1.16899 125.806 4.09593 137.159 13.4835 146.513C22.8712 155.867 34.1863 158.795 47.0006 159.438C60.2075 160.187 99.7925 160.187 112.999 159.438C125.814 158.831 137.165 155.903 146.516 146.513C155.868 137.159 158.795 125.806 159.438 112.989C160.187 99.7791 160.187 60.2209 159.438 47.011ZM142.376 127.163C139.592 134.16 134.202 139.551 127.17 142.372C116.64 146.549 91.6542 145.585 80.0178 145.585C68.3815 145.585 43.3597 146.513 32.8656 142.372C25.8695 139.587 20.4796 134.196 17.6598 127.163C13.4836 116.631 14.4473 91.639 14.4473 80C14.4473 68.361 13.5192 43.3337 17.6598 32.8372C20.444 25.8396 25.8338 20.4485 32.8656 17.628C43.3954 13.4509 68.3815 14.4148 80.0178 14.4148C91.6542 14.4148 116.676 13.4866 127.17 17.628C134.166 20.4128 139.556 25.8039 142.376 32.8372C146.552 43.3694 145.588 68.361 145.588 80C145.588 91.639 146.552 116.666 142.376 127.163Z" fill="#F33A3D" fill-opacity="0.3"/>
</svg>
