<svg width="183" height="160" viewBox="0 0 183 160" fill="none" xmlns="http://www.w3.org/2000/svg">
<path d="M68.625 17.1429C68.625 7.67857 76.3096 0 85.7812 0H97.2188C106.69 0 114.375 7.67857 114.375 17.1429V142.857C114.375 152.321 106.69 160 97.2188 160H85.7812C76.3096 160 68.625 152.321 68.625 142.857V17.1429ZM0 85.7143C0 76.25 7.68457 68.5714 17.1562 68.5714H28.5938C38.0654 68.5714 45.75 76.25 45.75 85.7143V142.857C45.75 152.321 38.0654 160 28.5938 160H17.1562C7.68457 160 0 152.321 0 142.857V85.7143ZM154.406 22.8571H165.844C175.315 22.8571 183 30.5357 183 40V142.857C183 152.321 175.315 160 165.844 160H154.406C144.935 160 137.25 152.321 137.25 142.857V40C137.25 30.5357 144.935 22.8571 154.406 22.8571Z" fill="#F33A3D" fill-opacity="0.3"/>
</svg>
