<svg width="160" height="160" viewBox="0 0 160 160" fill="none" xmlns="http://www.w3.org/2000/svg">
<path d="M2.96007 2.96007C6.86518 -0.945036 13.1758 -0.945036 17.0809 2.96007L40.0117 25.8596V20.0176C40.0117 14.4879 44.4792 10.0205 50.0088 10.0205C55.5384 10.0205 60.0059 14.4879 60.0059 20.0176V50.0088C60.0059 55.5384 55.5384 60.0059 50.0088 60.0059H20.0176C14.4879 60.0059 10.0205 55.5384 10.0205 50.0088C10.0205 44.4792 14.4879 40.0117 20.0176 40.0117H25.8596L2.92883 17.0809C-0.945035 13.1758 -0.945036 6.86518 2.96007 2.96007ZM62.5051 80C62.5051 70.3466 70.3466 62.5051 80 62.5051C89.6534 62.5051 97.4949 70.3466 97.4949 80C97.4949 89.6534 89.6534 97.4949 80 97.4949C70.3466 97.4949 62.5051 89.6534 62.5051 80ZM157.04 17.0809L134.14 40.0117H139.982C145.512 40.0117 149.979 44.4792 149.979 50.0088C149.979 55.5384 145.512 60.0059 139.982 60.0059H109.991C104.462 60.0059 99.9941 55.5384 99.9941 50.0088V20.0176C99.9941 14.4879 104.462 10.0205 109.991 10.0205C115.521 10.0205 119.988 14.4879 119.988 20.0176V25.8596L142.919 2.92883C146.824 -0.976276 153.166 -0.976276 157.071 2.92883C160.976 6.83393 160.976 13.1758 157.071 17.0809H157.04ZM142.888 157.04L119.988 134.14V139.982C119.988 145.512 115.521 149.979 109.991 149.979C104.462 149.979 99.9941 145.512 99.9941 139.982V109.991C99.9941 104.462 104.462 99.9941 109.991 99.9941H139.982C145.512 99.9941 149.979 104.462 149.979 109.991C149.979 115.521 145.512 119.988 139.982 119.988H134.14L157.071 142.919C160.976 146.824 160.976 153.166 157.071 157.071C153.166 160.976 146.824 160.976 142.919 157.071L142.888 157.04ZM2.96007 142.919L25.8596 119.988H20.0176C14.4879 119.988 10.0205 115.521 10.0205 109.991C10.0205 104.462 14.4879 99.9941 20.0176 99.9941H50.0088C55.5384 99.9941 60.0059 104.462 60.0059 109.991V139.982C60.0059 145.512 55.5384 149.979 50.0088 149.979C44.4792 149.979 40.0117 145.512 40.0117 139.982V134.14L17.0809 157.071C13.1758 160.976 6.83393 160.976 2.92883 157.071C-0.976276 153.166 -0.976276 146.824 2.92883 142.919H2.96007Z" fill="#F33A3D" fill-opacity="0.3"/>
</svg>
