<svg width="180" height="160" viewBox="0 0 180 160" fill="none" xmlns="http://www.w3.org/2000/svg">
<path d="M41.0332 3.43784C42.6152 1.29796 45.1465 0 47.8184 0H132.194C134.866 0 137.397 1.26288 138.979 3.43784L178.354 56.7595C180.745 59.9868 180.499 64.442 177.827 67.4238L96.2639 157.229C94.6819 158.983 92.3967 160 90.0061 160C87.6154 160 85.3654 158.983 83.7482 157.229L2.18532 67.4238C-0.521722 64.442 -0.73266 59.9868 1.65798 56.7595L41.0332 3.43784ZM54.5684 17.3997C53.4082 18.2767 53.0918 19.8553 53.8301 21.0831L74.0099 54.6547L22.2596 58.9344C20.8182 59.0397 19.6932 60.2675 19.6932 61.7408C19.6932 63.2142 20.8182 64.4069 22.2596 64.5472L89.76 70.1601C89.9006 70.1601 90.0764 70.1601 90.217 70.1601L157.717 64.5472C159.159 64.442 160.284 63.2142 160.284 61.7408C160.284 60.2675 159.159 59.0748 157.717 58.9344L105.967 54.6196L126.147 21.0831C126.885 19.8553 126.569 18.2416 125.409 17.3997C124.248 16.5578 122.631 16.6981 121.647 17.7505L90.0061 51.9886L58.3301 17.7505C57.3458 16.6981 55.7286 16.5578 54.5684 17.3997Z" fill="#F33A3D" fill-opacity="0.3"/>
</svg>
