<svg width="160" height="160" viewBox="0 0 160 160" fill="none" xmlns="http://www.w3.org/2000/svg">
<path d="M154.606 14.6893C158.575 13.5331 160.856 9.34561 159.699 5.37691C158.543 1.40821 154.356 -0.87301 150.388 0.314475L16.1855 39.6577C13.2484 40.5015 10.5925 41.9077 8.31149 43.7514C3.28085 47.4076 0 53.3138 0 60.0012V140C0 151.031 8.96767 160 19.9976 160H139.983C151.013 160 159.981 151.031 159.981 140V60.0012C159.981 48.9701 151.013 40.0015 139.983 40.0015H68.273L154.606 14.6893ZM114.986 75.001C128.797 75.001 139.983 86.1884 139.983 100.001C139.983 113.813 128.797 125 114.986 125C101.175 125 89.9891 113.813 89.9891 100.001C89.9891 86.1884 101.175 75.001 114.986 75.001ZM19.9976 87.5009C19.9976 83.3447 23.3409 80.001 27.4967 80.001H62.4924C66.6482 80.001 69.9915 83.3447 69.9915 87.5009C69.9915 91.6571 66.6482 95.0008 62.4924 95.0008H27.4967C23.3409 95.0008 19.9976 91.6571 19.9976 87.5009ZM19.9976 117.501C19.9976 113.344 23.3409 110.001 27.4967 110.001H62.4924C66.6482 110.001 69.9915 113.344 69.9915 117.501C69.9915 121.657 66.6482 125 62.4924 125H27.4967C23.3409 125 19.9976 121.657 19.9976 117.501Z" fill="#F33A3D" fill-opacity="0.3"/>
</svg>
