<svg width="160" height="183" viewBox="0 0 160 183" fill="none" xmlns="http://www.w3.org/2000/svg">
<path d="M159.964 75.0345C144.254 75.0703 128.9 70.1729 116.117 61.0214V124.903C116.117 136.735 112.511 148.282 105.763 158.005C99.0142 167.728 89.4807 175.164 78.4118 179.311C67.3429 183.458 55.2743 184.137 43.8127 181.205C32.351 178.274 22.0677 171.947 14.2838 163.046C6.49989 154.144 1.67958 143.027 0.358456 131.266C-0.962666 119.505 1.39393 107.637 6.99977 97.2339C12.6056 86.8313 21.2822 78.3948 31.8512 73.0327C42.4201 67.6705 54.3102 65.7044 66.0218 67.313V99.4503C60.6659 97.7701 54.9172 97.8059 49.597 99.5933C44.2768 101.381 39.6351 104.812 36.3858 109.352C33.1366 113.892 31.387 119.398 31.4227 125.046C31.4584 130.694 33.2794 136.127 36.6001 140.667C39.9207 145.207 44.5982 148.568 49.9541 150.284C55.31 151.999 61.0587 151.999 66.3789 150.248C71.6991 148.496 76.3765 145.1 79.6615 140.56C82.9464 136.02 84.7317 130.515 84.7317 124.903V0H116.153C116.117 2.64533 116.367 5.32642 116.831 7.936C117.938 13.7629 120.188 19.3395 123.508 24.2727C126.829 29.2059 131.114 33.4242 136.077 36.6415C143.182 41.3244 151.502 43.8268 160 43.8268V75.0703L159.964 75.0345Z" fill="#F33A3D" fill-opacity="0.3"/>
</svg>
