<svg width="160" height="160" viewBox="0 0 160 160" fill="none" xmlns="http://www.w3.org/2000/svg">
<path d="M22.8571 0C10.25 0 0 10.25 0 22.8571V137.143C0 149.75 10.25 160 22.8571 160H137.143C149.75 160 160 149.75 160 137.143V22.8571C160 10.25 149.75 0 137.143 0H22.8571ZM45.7143 28.5714C55.1786 28.5714 62.8571 36.25 62.8571 45.7143C62.8571 55.1786 55.1786 62.8571 45.7143 62.8571C36.25 62.8571 28.5714 55.1786 28.5714 45.7143C28.5714 36.25 36.25 28.5714 45.7143 28.5714ZM97.1429 68.5714C100.143 68.5714 102.893 70.1429 104.464 72.6786L135.893 124.107C137.5 126.75 137.571 130.071 136.071 132.786C134.571 135.5 131.679 137.143 128.571 137.143H31.4286C28.25 137.143 25.2857 135.357 23.8214 132.536C22.3571 129.714 22.5714 126.286 24.3929 123.679L44.3929 95.1071C46 92.8214 48.6071 91.4643 51.4286 91.4643C54.25 91.4643 56.8571 92.8214 58.4643 95.1071L67.8929 108.607L89.8214 72.7143C91.3929 70.1786 94.1429 68.6071 97.1429 68.6071V68.5714Z" fill="#F33A3D" fill-opacity="0.3"/>
</svg>
