<svg width="160" height="112" viewBox="0 0 160 112" fill="none" xmlns="http://www.w3.org/2000/svg">
<path d="M156.631 17.5292C154.815 10.6167 149.367 5.19167 142.483 3.35417C130.033 0 80 0 80 0C80 0 29.967 0 17.4881 3.35417C10.6042 5.19167 5.18491 10.6167 3.33944 17.5292C5.58725e-07 30.0417 0 56.1167 0 56.1167C0 56.1167 5.58725e-07 82.1917 3.33944 94.7042C5.18491 101.588 10.6042 106.808 17.4881 108.646C29.967 112 80 112 80 112C80 112 130.033 112 142.512 108.646C149.396 106.808 154.815 101.588 156.661 94.7042C160 82.1917 160 56.1167 160 56.1167C160 56.1167 160 30.0417 156.661 17.5292H156.631ZM63.625 79.8V32.4333L105.427 56.1167L63.625 79.8Z" fill="#FBCECD" fill-opacity="0.3"/>
</svg>
