<svg width="160" height="160" viewBox="0 0 160 160" fill="none" xmlns="http://www.w3.org/2000/svg">
<path d="M20 20C20 8.96875 28.9688 0 40 0H106.719C112.031 0 117.125 2.09375 120.875 5.84375L134.156 19.125C137.906 22.875 140 27.9688 140 33.2812V45H20V20ZM0 80C0 68.9688 8.96875 60 20 60H140C151.031 60 160 68.9688 160 80V110C160 115.531 155.531 120 150 120H140V140C140 151.031 131.031 160 120 160H40C28.9688 160 20 151.031 20 140V120H10C4.46875 120 0 115.531 0 110V80ZM40 130V140H120V110H40V130ZM142.5 85C142.5 80.8438 139.156 77.5 135 77.5C130.844 77.5 127.5 80.8438 127.5 85C127.5 89.1562 130.844 92.5 135 92.5C139.156 92.5 142.5 89.1562 142.5 85Z" fill="#F33A3D" fill-opacity="0.3"/>
</svg>
