<svg width="60" height="60" viewBox="0 0 60 60" fill="none" xmlns="http://www.w3.org/2000/svg">
<path d="M15 9C11.6906 9 9 11.6906 9 15V45C9 48.3094 11.6906 51 15 51H45C48.3094 51 51 48.3094 51 45V15C51 11.6906 48.3094 9 45 9H15ZM15.4688 24.9563H21.7031V45H15.4688V24.9563ZM22.1906 18.6094C22.1906 20.6062 20.5781 22.2188 18.5812 22.2188C16.5844 22.2188 14.9719 20.6062 14.9719 18.6094C14.9719 16.6125 16.5844 15 18.5812 15C20.5781 15 22.1906 16.6125 22.1906 18.6094ZM38.8031 45V35.25C38.8031 32.925 38.7562 29.9344 35.5687 29.9344C32.325 29.9344 31.8281 32.4656 31.8281 35.0813V45H25.6031V24.9563H31.575V27.6937H31.6594C32.4938 26.1187 34.5281 24.4594 37.5563 24.4594C43.8563 24.4594 45.0281 28.6125 45.0281 34.0125V45H38.8031Z" fill="black"/>
</svg>
