<svg width="739" height="502" viewBox="0 0 739 502" fill="none" xmlns="http://www.w3.org/2000/svg">
<path opacity="0.75" d="M735.086 231.089C734.015 228.954 731.607 230.021 729.734 228.954C730.804 227.085 731.339 224.949 730.269 223.08C728.396 220.144 727.325 217.207 726.79 213.737C726.523 212.402 725.452 211.601 724.114 211.601C723.044 211.601 721.974 211.868 720.903 212.135C720.368 212.135 719.565 212.669 719.565 211.601C719.833 209.999 719.833 209.198 719.298 208.931H719.565C719.565 207.863 719.833 206.796 719.833 205.728C719.833 204.66 720.368 203.859 721.438 203.592C724.917 202.257 728.663 201.189 732.142 200.122C734.283 199.588 734.55 199.321 734.818 197.185C734.818 193.714 734.283 193.181 730.804 193.447C730.269 193.447 729.734 193.447 729.466 193.714C725.452 194.515 721.706 193.18 717.96 192.647C716.889 192.38 716.087 191.312 716.889 190.778C718.763 188.909 720.368 186.506 723.312 185.972C724.382 185.706 725.452 185.172 725.987 184.104C727.593 181.968 729.199 179.832 731.072 177.964C732.142 176.629 732.677 175.027 732.677 173.425C732.41 171.023 732.41 168.353 732.41 165.95C732.41 163.548 731.339 161.946 729.199 160.878C728.128 160.344 727.593 159.543 727.593 158.475C727.593 157.14 727.861 155.806 728.663 154.738C729.466 153.67 730.269 152.602 731.072 151.534C731.339 151 731.339 150.733 730.804 150.466C726.255 147.797 723.312 148.064 719.565 151.534C718.763 152.335 717.96 152.869 716.889 152.335C715.284 151.801 713.411 151.267 711.538 151.267C709.932 151.267 709.129 150.466 708.862 148.865C708.862 148.064 708.594 147.263 708.327 146.462C708.059 145.661 707.791 144.86 706.989 144.593C704.045 144.059 701.101 143.258 697.89 144.593C696.285 145.394 694.679 144.86 693.877 143.258C693.341 142.457 693.341 141.657 693.074 140.856C692.271 138.453 691.201 137.385 689.328 137.118C687.187 136.851 686.116 137.919 685.581 139.788C685.046 140.856 684.243 141.123 683.173 141.123C680.765 140.856 678.356 140.055 676.216 138.72C671.399 135.249 666.315 133.648 660.428 134.449C659.09 134.715 658.822 134.182 658.555 132.847C658.287 130.177 657.217 129.376 654.541 129.376C652.935 129.376 651.597 129.643 649.992 130.177C648.654 130.444 647.851 131.245 647.851 132.58C647.583 134.448 647.316 136.317 647.048 138.453C647.048 139.254 647.048 140.055 645.978 140.055C644.907 140.055 644.105 140.055 643.57 139.254C643.302 138.987 643.302 138.453 643.034 138.186C642.232 136.05 640.894 134.715 638.753 133.648C637.147 133.114 635.809 132.313 634.471 130.978C633.133 129.376 631.528 128.575 629.387 128.041C628.049 127.774 627.246 126.707 627.514 125.372V121.367C627.514 118.965 626.979 118.431 624.571 118.164C622.965 118.164 621.895 117.363 621.359 115.761C621.092 115.227 620.824 114.693 620.557 113.892C619.219 111.223 617.346 110.155 614.402 110.422C611.994 110.689 609.853 111.757 608.515 113.625C606.642 115.761 604.501 116.829 601.558 117.096C599.952 117.096 598.347 117.63 596.741 118.431C593.53 120.032 590.587 121.901 588.178 124.571C586.84 125.906 586.305 126.173 584.967 124.571C582.559 121.901 579.615 120.566 575.869 121.634C573.907 122.168 572.569 121.456 571.855 119.499C570.517 116.295 567.574 114.159 564.63 114.693C562.222 115.227 559.814 115.494 557.138 115.761C554.462 116.028 552.589 117.096 551.786 119.766C551.786 120.032 551.518 120.299 551.518 120.299C550.983 121.1 550.18 121.634 549.378 121.634C548.575 121.634 548.842 120.566 548.575 120.032C548.307 119.499 548.307 118.965 548.307 118.431C547.504 115.761 546.702 114.96 543.758 114.693H542.42C541.082 114.693 540.012 113.892 539.744 112.557C539.209 111.223 538.941 109.621 538.406 108.286C537.871 106.951 538.139 105.883 538.674 104.816C540.012 102.68 540.012 100.277 538.941 98.1415C538.139 96.0057 537.336 93.87 536.533 92.0013C536.266 91.2004 535.73 90.3995 535.195 89.8656C533.857 88.7977 533.59 87.1959 534.125 85.5942C534.66 83.9924 534.928 82.1236 534.928 80.2549C534.928 77.5852 533.857 77.0513 531.449 78.3861C527.435 80.7888 526.097 79.9879 526.097 75.4495C526.097 70.3772 525.83 70.1103 520.478 69.5763C518.872 69.5763 517.534 69.3094 515.929 70.3772C513.253 72.5129 508.169 72.246 505.493 70.1103C505.225 69.8433 504.69 69.5763 504.155 69.3094C500.676 68.2415 497.465 67.1737 493.986 69.0424C493.451 69.3094 492.648 69.3094 492.113 69.5763C491.845 68.2415 492.113 66.9067 492.381 65.5719C492.648 63.4362 492.113 61.8344 490.24 60.7665C489.17 60.2326 489.437 59.6987 489.972 58.8978C491.31 57.029 491.31 54.8933 489.705 53.2916C488.099 51.6898 487.296 49.5541 486.226 47.6853C485.691 46.8844 485.959 46.0835 486.494 45.5496C487.564 44.2148 488.902 43.9478 490.508 43.9478C492.648 43.6809 495.057 43.4139 496.127 40.7443C497.197 37.8077 495.324 33.8032 492.648 32.2014C487.296 28.9979 482.48 25.2604 482.747 18.0524V17.2515C482.212 13.514 479.536 11.1113 476.86 8.44167C475.522 7.10685 474.185 5.77203 473.649 3.90329C473.114 2.83543 472.311 2.03454 471.241 1.76758H468.03C465.354 2.03454 462.946 3.36936 460.805 5.23811C459.199 2.56847 458.932 2.03454 457.594 2.56847C454.918 3.36936 452.777 3.1024 450.369 1.76758H448.228C446.623 2.30151 445.82 3.63632 444.75 4.70418C441.538 7.90774 437.792 10.0435 432.708 8.70863C431.905 8.44167 430.835 8.44167 429.764 8.44167C428.694 8.44167 427.891 7.90774 427.356 7.10685C424.413 3.90329 420.934 4.43721 417.188 5.77203C414.244 6.83989 414.244 9.50952 413.977 12.1792V12.7131C414.779 17.5184 411.033 19.6541 408.625 22.5907C408.357 22.8577 408.09 22.8577 407.554 22.8577C404.611 23.1247 401.667 22.8577 398.992 21.5229C397.386 20.722 395.78 20.455 394.175 19.9211C389.358 18.8533 384.274 19.6541 379.457 19.9211C377.584 19.9211 375.979 20.455 374.908 22.0568C374.641 22.3238 374.373 22.5907 373.838 22.3238C370.627 20.455 367.148 21.5229 363.937 22.0568C362.599 22.3238 361.529 23.1247 361.529 24.4595C361.261 26.8622 359.656 28.197 358.05 29.7988C356.445 31.1336 355.107 32.7354 354.036 34.6041C352.431 37.8077 350.29 40.7443 348.417 43.6809C346.544 46.3505 345.206 49.0201 345.473 52.2237C345.741 55.9612 347.079 59.4317 348.952 62.6353C350.022 64.771 350.29 66.6397 349.22 68.7754C348.684 70.1103 347.882 71.1781 346.276 71.1781C344.671 71.1781 343.868 70.1103 343.065 68.7754C341.995 66.6397 340.657 64.2371 339.586 62.1014C339.051 60.7665 337.981 59.9656 336.643 59.9656C331.826 59.9656 327.01 59.4317 322.193 60.4996C320.32 60.7665 318.982 60.4996 317.644 59.1648C316.306 57.563 314.433 57.296 312.56 58.3639C310.687 59.4317 308.546 60.2326 307.208 61.8344C305.602 63.4362 303.997 63.9701 301.856 63.9701C300.518 63.9701 300.251 63.4362 300.251 62.3683C300.251 60.2326 299.983 58.3639 298.913 56.7621C298.11 55.4273 297.307 54.0924 297.307 52.4907C297.307 50.8889 296.237 50.355 294.899 50.355C292.49 50.088 290.082 50.6219 288.209 51.9567C286.603 53.0246 284.998 53.8255 283.392 54.3594C281.252 55.1603 280.181 56.7621 279.914 58.8978V60.7665C279.914 61.8344 279.378 61.8344 278.843 61.3005C277.505 60.4996 277.238 59.1648 277.238 57.563C276.97 53.2916 272.153 50.355 268.675 52.2237C267.872 52.7576 267.337 53.8255 266.266 53.5585C265.464 53.2916 264.929 52.2237 264.126 51.4228C263.858 51.1558 263.591 50.8889 263.323 50.355C261.45 48.2192 259.577 47.6853 257.168 49.2871C253.957 51.6898 251.014 52.2237 247.803 49.5541C245.93 47.9523 244.056 49.2871 243.521 51.6898C243.254 52.4907 243.254 53.5585 242.986 54.3594C242.718 55.4273 241.648 55.6942 240.845 55.6942C239.775 55.6942 239.775 54.6264 239.775 54.0924C239.507 53.0246 239.507 51.9567 239.24 50.8889C238.972 49.821 238.705 49.0201 237.902 48.4862C235.226 47.1514 232.818 46.6175 230.142 48.2192C229.071 49.0201 227.733 49.2871 226.663 49.5541C225.593 49.821 225.057 49.5541 224.522 48.4862C222.917 45.8166 221.846 43.1469 221.579 40.2103C221.311 37.2737 218.903 35.672 216.227 36.4728C215.424 36.7398 214.621 37.2737 213.819 37.8077C212.213 39.1425 210.34 39.1425 208.734 37.8077C205.256 35.138 201.509 34.3371 197.228 34.0702C195.623 34.0702 194.017 33.8032 192.947 33.0023C191.073 31.6675 188.933 31.1336 186.524 31.4005C184.919 31.6675 183.581 30.8666 183.046 29.2648C182.243 27.1291 180.37 26.0613 178.229 26.0613C175.286 25.7943 172.075 25.7943 169.131 25.7943C166.99 25.7943 164.85 26.0613 162.976 25.5273C160.836 24.7265 158.695 24.4595 156.554 24.4595C154.414 24.4595 152.273 24.1925 150.667 22.8577C149.597 22.0568 148.527 22.0568 147.456 22.8577C146.118 23.6586 144.78 23.9256 143.442 23.9256C132.471 23.1247 124.443 22.8577 116.416 22.8577C114.007 22.8577 111.867 23.6586 110.261 25.5273C109.726 26.0613 109.458 26.5952 108.923 26.8622C107.318 28.197 106.515 29.7988 106.247 31.6675C105.98 34.3371 104.106 35.672 102.501 37.5407C101.698 38.6086 100.093 38.0746 98.7546 38.0746C96.6139 38.0746 94.4732 38.3416 92.6 37.2737C89.1214 35.138 85.3751 35.405 81.6288 35.9389C79.2205 36.2059 78.4177 37.2737 78.4177 39.6764C78.4177 40.4773 78.4177 41.2782 78.6853 42.0791C79.2205 45.5496 79.7557 49.0201 79.4881 52.7576C79.2205 54.8933 79.4881 57.029 80.5584 58.8978C81.8964 60.7665 82.9668 62.9022 84.3047 64.771C87.5158 69.0424 89.3889 73.8478 90.7269 78.9201C91.2621 81.0558 91.7973 82.9245 93.1352 84.7933C93.938 85.8611 93.6704 86.1281 92.6 86.662C89.9241 87.9968 89.3889 89.5986 90.4593 92.2683C90.9945 93.3361 91.5297 94.137 92.0649 94.9379C95.0083 98.6754 94.4732 104.549 90.9945 107.752C89.9241 108.82 88.8538 109.888 88.051 111.223C87.5158 112.557 86.4454 113.091 85.1075 113.091C81.8964 112.824 79.2205 114.159 76.8122 116.295C73.8687 118.698 71.7279 121.901 68.2493 123.77C64.2354 125.906 60.7567 128.842 57.0104 131.512C54.8697 133.114 53.2642 134.982 51.9262 137.118C49.2503 141.657 46.0392 145.127 41.7578 148.064C40.1522 149.132 39.0819 150.466 38.2791 152.335C37.2087 155.005 35.6032 156.606 32.6597 157.14C31.5893 157.407 30.7866 157.941 30.519 159.276C29.9838 161.679 29.4486 164.348 30.519 166.751C31.0541 168.086 31.3217 169.688 31.3217 171.289C31.3217 174.493 31.3217 177.43 31.0541 180.633C31.0541 183.57 31.3217 186.506 32.6597 188.909C32.9273 189.443 33.7301 189.977 32.9273 190.511C32.3921 191.045 31.8569 190.778 31.0541 190.778C29.4486 190.244 27.8431 189.71 26.2375 189.443C22.4912 188.375 21.4209 189.176 20.6181 192.914C20.6181 193.447 20.3505 193.981 20.3505 194.515C20.0829 196.384 19.0126 197.986 17.407 199.054C17.407 199.054 17.1394 199.054 17.1394 199.321C15.2663 200.655 13.9283 202.257 13.1256 204.393C12.858 205.461 12.5904 206.529 12.3228 207.597C12.3228 208.13 11.7876 208.931 12.3228 209.465C12.3228 209.465 12.0552 209.465 12.0552 209.732C11.2524 212.402 9.91447 214.271 7.50615 215.605C5.90061 216.406 4.83024 218.008 4.29506 219.61C3.49229 221.746 2.42193 223.881 1.35156 226.017C1.35156 226.818 1.61915 227.352 1.61915 227.886C4.29506 229.755 6.70338 231.356 6.97097 234.56C7.50615 237.763 9.37929 239.899 12.5904 240.7C15.2663 241.501 17.1394 243.103 18.2098 245.772C18.4774 246.573 19.0126 247.107 19.2801 247.908C20.0829 249.777 21.4209 250.578 23.5616 250.311C26.2375 250.044 28.1106 251.913 28.1106 254.582C28.1106 255.65 28.1106 256.718 28.3782 257.786C28.3782 259.387 29.181 259.921 30.7866 259.654C32.1245 259.654 34.2652 259.387 35.3356 259.387C38.0115 259.387 39.8846 258.32 40.955 255.65C41.7578 253.781 43.0957 253.514 44.9689 254.315C47.3772 255.383 48.9827 256.985 50.3207 259.121C51.391 260.989 53.2642 261.79 55.4049 261.79H64.2354C66.1085 261.79 67.9817 262.591 69.5872 263.926C71.1928 265.261 73.0659 265.795 74.939 265.528C76.5446 265.261 77.6149 265.795 78.6853 267.129C79.4881 268.197 80.5584 268.731 81.8964 268.731C82.6992 268.731 83.7695 268.998 84.5723 268.998C87.7834 268.998 90.9945 269.532 93.938 267.663C96.3463 266.062 97.4167 266.062 99.5574 267.93C100.36 268.731 101.431 270.066 102.233 271.134C103.304 272.736 104.374 274.07 105.712 275.405C107.585 277.007 108.655 278.876 108.923 281.279C108.923 282.88 109.993 283.414 111.331 283.681C113.205 284.215 114.81 283.948 116.683 284.215C119.359 284.482 121.232 283.681 122.838 281.812C124.443 279.944 126.049 278.075 127.654 275.939C128.992 274.07 130.866 273.537 133.274 273.537C139.696 273.537 146.386 274.337 152.808 271.668C153.076 271.401 153.611 271.401 154.146 271.401C157.357 270.6 160.836 271.401 164.047 270.867C166.723 270.333 169.131 269.799 171.004 267.93C172.61 266.596 172.075 264.727 172.075 262.858C172.075 261.256 173.145 260.188 174.483 259.921C176.356 259.387 178.229 259.121 179.835 258.32C181.975 257.519 184.116 257.519 186.257 258.053C190.271 258.854 193.482 256.718 194.017 252.713C194.285 251.112 194.285 249.777 194.552 247.908C196.158 248.976 197.496 249.777 198.834 250.578C200.707 251.646 201.509 251.379 202.58 249.777C203.65 247.908 204.453 248.175 205.791 249.51C206.059 249.777 206.326 250.044 206.594 250.044C208.734 251.112 210.875 251.379 213.016 250.845C214.621 250.311 214.621 248.709 215.157 247.374C215.424 246.84 215.424 246.306 215.959 246.573C217.565 246.84 219.17 246.306 220.241 245.238C220.508 244.971 220.776 244.971 221.044 244.971C223.452 246.039 225.86 245.772 228.269 246.039C230.677 246.306 233.353 246.306 234.958 248.442C236.831 250.845 239.24 252.713 241.916 254.048C242.451 254.315 242.718 254.582 243.254 255.116C244.592 256.718 246.197 258.053 247.803 259.387C249.676 260.989 251.817 262.324 253.957 259.921C253.957 259.921 254.225 259.921 254.225 259.654C254.76 259.387 255.295 259.654 255.563 259.921C256.098 260.188 255.563 260.722 255.563 260.989C255.295 261.256 255.295 261.79 255.028 262.057C254.225 264.193 254.76 265.261 256.633 266.062C257.436 266.329 258.239 266.862 258.774 267.663C260.915 270.066 263.323 270.066 264.393 266.596C264.661 265.261 265.731 264.46 267.069 264.727C270.548 265.261 273.224 266.596 275.365 269.265C277.238 271.935 278.843 274.604 280.716 277.274C283.125 280.478 284.195 280.745 287.941 278.876C288.744 278.609 289.279 278.342 289.547 279.143C290.617 283.414 291.42 287.686 289.279 291.69C287.406 295.161 286.603 298.631 286.336 302.369C286.068 304.237 286.871 306.106 288.477 307.174C292.49 310.111 295.969 313.581 299.18 317.586C300.786 319.543 302.213 319.454 303.462 317.319C303.729 317.052 303.729 316.251 304.264 316.518C304.8 316.785 305.335 317.319 305.067 317.853C304.264 320.522 303.997 323.459 302.391 326.128C300.786 328.264 300.786 328.798 302.926 330.667C303.462 331.201 303.997 331.468 304.532 332.002C305.602 332.536 305.87 333.336 305.602 334.671C304.532 338.943 306.405 342.947 310.419 344.816C312.292 345.617 314.165 346.685 316.306 347.218C318.714 348.019 319.517 349.621 319.517 352.024C319.517 356.295 319.785 360.3 320.052 364.571C320.32 368.309 321.925 371.245 325.672 372.847C326.207 373.114 326.207 375.517 326.474 377.118H326.207C325.939 377.652 325.672 377.385 325.136 377.385C323.263 377.385 321.39 377.385 319.517 377.652C318.179 377.652 316.841 379.254 315.771 378.453C314.7 377.652 314.433 376.051 313.898 374.983C312.827 372.58 310.151 372.58 308.546 374.716C308.011 375.517 307.743 376.051 307.208 376.851C306.405 376.318 306.138 375.25 305.87 374.716C303.729 370.711 299.715 369.91 296.237 372.847C295.166 373.915 293.828 374.449 292.49 375.25C291.42 375.784 291.152 375.517 290.617 374.449C290.082 373.114 290.082 371.779 290.082 370.711C289.814 368.042 288.477 367.241 286.068 368.576C283.392 369.91 280.984 371.512 278.576 372.847C277.238 373.648 276.703 374.716 276.97 376.051C277.505 379.254 277.773 382.725 278.308 385.928C278.308 386.996 278.843 387.797 279.378 388.598C280.984 390.734 280.449 392.602 279.111 394.738C278.04 396.34 276.703 397.942 276.435 399.81C276.167 402.213 274.829 403.014 272.689 403.014C270.548 403.281 268.675 404.349 268.675 406.217C268.407 409.955 266.802 412.358 263.858 414.493C262.253 415.828 261.182 417.43 259.309 418.231C257.168 419.299 256.633 420.634 256.901 423.036C257.168 424.104 257.436 425.172 257.704 426.24C257.971 427.842 257.704 429.176 255.83 429.977C255.028 430.244 253.957 430.511 253.155 430.778C251.549 431.045 250.211 430.511 248.873 430.511C245.93 430.244 244.592 431.579 244.324 434.249C244.324 436.651 244.859 438.52 246.732 440.122C249.676 442.525 252.887 444.66 255.295 447.597C255.563 447.864 256.098 448.398 256.633 448.398C259.844 449.466 263.055 450.533 266.266 451.067C269.478 451.868 270.816 450.8 270.816 447.33V445.995C270.816 445.728 270.548 445.194 271.083 444.927C271.618 444.66 272.153 444.66 272.689 445.194C272.956 445.461 273.224 445.728 273.491 446.262C275.097 448.665 276.167 449.199 278.843 447.864C280.984 446.796 283.125 445.728 285.265 444.66C288.209 443.325 290.885 441.457 294.096 440.656C300.786 439.054 305.335 442.525 305.067 448.665C304.8 450.8 305.87 452.936 307.475 454.271C307.743 454.538 308.278 455.072 308.546 454.805C309.884 454.004 311.489 453.737 312.024 452.135C312.56 449.999 313.898 448.398 314.968 446.529C316.574 443.859 316.306 441.19 314.433 438.787C313.362 437.719 312.292 436.651 311.222 435.85C309.616 434.516 308.546 432.914 308.011 431.045C307.208 427.575 307.208 424.104 308.278 420.633C308.278 420.1 308.546 419.833 309.081 419.566C310.151 421.434 309.884 423.303 310.151 425.172C310.419 427.041 311.757 428.108 313.362 428.375C315.503 428.909 316.841 428.375 317.911 426.774C318.982 425.172 318.982 423.57 318.179 421.968C317.911 421.434 317.376 420.634 318.447 420.367C320.587 419.833 321.39 418.231 321.658 416.362C322.193 413.959 324.601 412.892 326.742 413.959C328.08 414.493 329.15 414.493 330.488 413.959C331.559 413.692 332.361 413.159 333.432 413.159C335.572 412.892 336.91 411.557 337.713 409.955C339.051 407.552 340.122 405.417 341.459 403.014C343.868 398.742 343.065 394.471 339.586 391.001L334.502 385.928C332.629 384.326 331.826 382.191 331.291 379.788C331.559 379.521 331.826 378.72 332.361 378.453C333.164 378.186 334.502 374.182 335.037 374.983C337.713 378.72 340.122 382.725 342.53 386.462C343.6 388.331 345.473 389.933 347.882 390.734C348.952 391.001 349.755 390.467 350.558 389.933C351.896 388.598 352.966 386.996 353.233 385.127C353.501 383.526 354.304 382.458 355.642 381.39C357.247 380.322 358.318 378.453 358.318 376.584C358.585 374.182 358.585 372.046 358.853 369.643C359.12 366.707 359.923 366.44 363.134 366.707C365.81 366.974 368.486 365.906 370.627 364.304C372.5 362.969 374.373 362.702 376.514 363.236C377.852 363.503 378.922 363.503 380.26 363.77C383.471 364.571 385.88 364.037 387.753 361.101C388.288 360.3 388.823 360.3 389.626 360.834C391.231 361.902 392.837 362.168 394.978 361.901C396.048 361.635 396.851 361.901 397.921 361.901C399.527 361.901 400.865 362.168 402.47 362.435C404.611 362.435 406.752 362.435 407.822 360.033C407.822 359.766 408.09 359.499 408.357 359.499C410.498 360.834 413.441 360.567 414.779 363.236C415.582 364.838 416.92 365.372 418.526 364.571C421.469 363.236 423.61 364.838 426.018 366.173C424.413 367.241 423.877 367.508 422.272 366.974C419.596 366.173 416.92 365.906 414.244 365.906C412.103 365.906 409.963 365.639 407.822 365.105C403.005 363.503 398.189 363.503 393.104 363.77C391.499 363.77 390.429 364.838 390.429 366.44C390.429 368.843 392.302 367.508 393.64 367.241C394.442 367.241 395.245 367.508 395.78 367.241C396.048 367.241 396.583 366.974 396.851 366.707C397.386 366.44 397.921 366.44 398.456 366.44C398.724 366.44 399.259 366.707 399.259 366.707C399.527 366.974 399.527 367.241 399.527 367.508C399.259 368.309 397.921 368.042 397.654 368.576C397.386 368.843 397.386 369.11 397.118 369.376C396.851 369.643 396.583 369.376 396.316 369.376C395.513 369.376 394.71 370.444 394.978 371.245C395.245 371.779 396.316 372.313 396.851 372.58C398.456 373.114 399.527 372.046 400.329 370.711C400.865 370.177 401.4 369.643 402.47 369.91C404.611 370.711 406.484 371.245 408.625 371.779C409.16 372.046 409.428 372.046 409.695 372.58C409.963 374.716 407.287 377.385 405.146 376.851C403.541 376.318 402.47 376.851 401.667 377.919C400.865 378.987 400.329 380.322 400.865 381.39C401.667 382.725 403.005 382.725 404.343 382.458C406.216 382.191 408.09 382.458 409.695 383.259C412.906 384.86 416.117 386.729 419.061 388.865C420.934 390.2 422.807 391.801 424.68 392.869C430.3 395.806 435.919 396.34 441.538 392.602C442.341 392.068 443.144 391.534 444.214 391.534C448.496 391.268 452.777 390.734 456.791 390.734C458.932 390.734 460.805 390.467 461.875 388.865C462.411 388.064 462.946 388.064 463.748 388.865C466.424 391.268 469.368 393.403 472.847 395.005C475.522 396.34 476.593 395.539 477.396 392.869C477.663 392.068 477.663 391.268 477.931 390.467C477.931 390.2 478.466 389.666 478.734 390.2C479.536 391.534 480.607 392.869 481.409 394.471C481.945 394.738 482.48 396.34 483.015 397.942C481.945 397.942 481.409 398.209 481.142 399.543C481.677 400.611 480.874 401.412 480.339 402.48C479.536 404.883 479.804 405.417 482.212 406.751C482.747 407.018 483.818 407.018 483.55 408.086C483.283 408.887 483.015 409.688 481.945 409.955C481.409 410.222 480.607 410.222 480.072 410.222C478.466 410.222 476.593 410.222 474.987 411.29C472.311 412.892 469.635 414.226 466.96 416.095C463.481 418.498 460.002 420.633 455.988 421.968C451.707 423.57 447.425 425.973 443.947 429.176C442.341 430.778 440.468 431.579 438.327 432.113C435.384 432.914 433.511 434.783 432.708 437.986C431.905 441.457 433.511 444.393 435.651 447.063C436.454 447.864 437.257 448.131 438.06 447.063C439.398 445.194 441.271 444.66 443.412 444.66C445.017 444.393 446.623 444.126 448.228 443.859C450.369 443.592 451.974 444.126 453.58 445.461C455.988 447.864 458.397 450 460.805 452.402C463.213 455.072 466.157 455.606 469.368 454.271C470.973 453.47 472.847 453.47 474.185 454.538C478.734 458.275 484.085 461.746 481.677 469.221C481.409 470.022 481.409 470.556 481.409 471.357C481.409 471.624 481.142 472.157 480.874 472.424C479.536 473.759 479.269 475.361 479.536 477.23V483.103C479.804 484.972 479.001 485.773 477.396 486.307C474.185 487.374 473.114 489.51 474.185 492.714C474.452 493.515 474.72 494.315 475.522 495.116C476.86 495.917 478.466 495.65 479.804 495.65H483.55C484.085 495.917 484.353 496.184 484.621 496.718C485.423 498.587 487.029 499.388 488.902 500.189H492.916C496.662 499.922 500.408 499.655 504.155 499.388C506.028 499.388 507.633 498.854 508.704 496.985C508.971 496.451 509.507 495.917 510.042 495.65H511.112C512.985 495.65 515.126 495.917 516.731 495.116C518.605 493.782 519.675 491.646 519.943 489.51C520.478 486.307 521.816 484.171 524.492 482.569C526.632 481.234 528.505 479.899 530.111 478.031C531.181 476.963 532.252 476.162 533.857 476.162C536.266 475.895 538.674 475.628 540.815 475.094C542.955 474.56 544.561 475.094 545.899 476.696C546.969 478.031 548.842 477.764 550.18 477.23C551.518 476.696 551.518 475.628 551.786 474.293C552.053 472.424 552.053 470.556 553.927 469.221C555.8 467.886 557.673 466.551 559.814 465.483C561.152 464.682 561.954 464.149 561.954 462.547C562.489 459.076 565.165 456.941 567.574 455.339C569.447 454.004 574.263 455.606 576.137 457.741C578.01 460.144 580.418 460.678 583.362 459.877C584.967 459.343 586.573 459.076 588.446 459.076C593.262 459.343 598.347 458.542 603.163 457.474C607.177 456.674 608.248 455.339 608.515 451.067C608.783 447.597 608.248 443.859 608.783 440.389C609.05 438.52 610.121 437.719 611.726 437.185C613.064 436.918 614.402 436.651 616.008 436.384C617.346 436.117 617.881 435.316 617.881 433.982C618.148 430.778 616.543 428.909 613.332 428.642C609.853 428.108 606.374 427.575 602.896 427.041C599.952 426.507 597.276 426.774 594.6 428.375C593.262 429.176 591.924 429.71 590.319 430.244C588.446 430.778 587.375 431.846 586.84 433.982C586.84 434.516 586.84 435.05 586.037 435.05C584.7 435.05 583.362 435.05 582.826 433.181C582.291 430.778 580.953 429.977 579.08 429.977C576.939 429.977 576.404 431.579 575.869 433.181C575.334 434.783 574.531 435.583 572.926 435.85C571.052 436.117 569.714 437.185 568.912 438.787C567.841 440.656 566.503 441.457 564.363 441.19C560.616 440.923 556.87 440.389 553.124 440.122C547.504 439.588 547.504 439.321 547.504 433.715V433.181C547.772 430.778 546.969 428.909 545.364 427.041C544.293 425.706 543.223 424.104 542.688 422.502C541.082 417.697 537.871 415.828 533.054 415.828C531.717 415.828 531.181 415.561 531.449 413.959C531.984 409.955 529.041 407.819 525.294 409.154C524.759 409.421 523.956 409.955 523.421 410.222C523.154 410.489 522.886 410.756 522.351 410.756C522.351 409.955 522.618 409.688 523.154 409.421C523.689 409.154 524.492 408.887 525.027 408.353C526.097 407.285 526.632 405.95 526.097 404.616C525.562 403.014 524.224 403.815 522.886 403.815C521.548 404.082 520.478 404.082 519.14 404.082C519.14 403.281 520.745 403.281 519.943 402.48C518.337 400.611 516.731 400.344 514.591 401.145C512.718 401.946 510.577 402.213 508.436 402.48C505.76 402.747 503.887 402.213 503.084 399.276C502.282 396.607 500.944 396.073 498 396.874C496.395 397.408 494.789 397.675 493.183 397.408C493.005 397.408 492.827 397.319 492.648 397.141C492.381 395.005 491.846 391.001 491.846 390.734C491.578 388.064 489.972 386.729 487.564 386.195C487.029 386.195 486.494 385.928 485.691 385.661C486.494 385.127 487.029 384.059 488.099 384.593C489.705 385.661 491.043 385.394 492.381 384.326C493.183 383.793 493.719 383.793 494.521 384.593C495.859 386.195 497.465 387.797 499.338 388.331C500.944 388.865 502.817 388.064 503.352 386.462C503.62 385.127 504.155 383.793 504.422 382.458C505.76 383.793 507.098 384.86 508.436 385.928C509.507 386.729 510.577 387.263 511.915 386.462C513.52 385.661 515.126 385.394 516.731 385.394C519.407 385.394 522.083 385.394 524.492 384.86C527.168 384.326 528.505 384.86 529.308 387.53C529.576 388.865 529.843 388.598 530.646 388.064C530.914 387.797 531.181 387.797 531.449 387.263C532.519 384.86 534.66 382.992 536.266 381.123C537.336 379.788 538.941 379.254 540.547 379.521C542.955 379.788 544.829 378.72 546.166 376.851C546.969 375.784 547.772 374.983 548.307 373.915C549.11 372.58 549.913 372.313 551.251 373.114C553.927 374.449 554.729 374.182 556.335 372.046C559.011 368.309 562.222 365.639 565.701 362.702C568.644 360.3 571.32 357.096 574.531 354.693C578.545 351.49 582.826 350.155 587.643 352.825C591.122 354.693 594.333 353.893 597.009 350.956C598.079 349.888 598.882 348.553 599.685 347.218C602.093 343.481 606.642 341.879 610.923 342.947C611.726 343.214 612.529 343.214 613.064 343.481C614.135 344.015 614.937 343.748 615.74 342.68C616.543 341.345 617.346 340.277 618.416 338.943C619.486 337.608 620.824 336.54 622.43 336.273C625.106 336.273 626.979 334.938 628.317 332.802C629.387 331.201 630.725 330.667 632.598 331.201C633.936 331.735 635.007 331.468 636.077 330.4C638.218 328.264 640.091 326.395 641.429 323.459C642.499 320.789 644.64 319.721 647.316 319.454C648.119 319.454 649.189 319.454 649.724 318.92C652.132 317.319 655.076 317.052 657.752 317.319C658.555 317.319 659.09 317.319 659.893 317.052C661.498 316.518 662.836 316.785 664.442 317.586C665.512 318.119 666.85 318.386 668.188 318.119C670.864 317.319 671.399 314.649 671.131 312.513C670.864 310.378 671.667 308.509 673.272 307.174C675.68 304.771 675.68 301.835 673.004 299.699C672.202 298.898 671.934 298.364 672.202 297.296C672.469 294.36 672.737 291.423 673.004 288.753C673.272 283.681 673.54 281.812 680.229 281.812C681.567 281.812 682.638 281.545 683.173 280.211C683.976 278.609 685.046 277.808 686.919 277.808C688.257 277.808 689.327 277.274 689.863 275.939C690.933 273.537 691.468 271.134 691.736 268.731C691.914 266.418 693.163 265.083 695.482 264.727C698.158 264.193 700.566 263.926 703.242 264.727C704.848 265.261 706.453 264.994 708.059 264.193C710.467 262.858 712.608 262.858 714.749 264.727C716.087 265.795 717.425 265.795 718.763 264.46C720.1 263.125 721.438 262.858 723.312 262.858C725.452 262.858 727.593 262.591 729.734 262.057C730.804 261.79 731.874 260.989 732.142 259.921C732.677 256.718 733.212 253.781 731.874 250.578C731.607 250.044 731.607 249.243 731.874 248.976C732.41 247.107 732.41 245.238 732.677 243.637C732.945 241.501 733.748 239.632 735.086 237.763C735.621 236.963 736.156 236.162 736.691 235.361C736.691 235.628 736.959 235.628 736.959 235.895H737.226V234.56C734.818 232.691 734.818 231.89 735.086 231.089Z" stroke="#282828" stroke-width="1.86229" stroke-linecap="round" stroke-linejoin="round"/>
</svg>
