<svg width="424" height="661" viewBox="0 0 424 661" fill="none" xmlns="http://www.w3.org/2000/svg">
<path opacity="0.75" d="M112.393 204.541C112.393 204.295 112.146 204.295 112.146 204.048H111.405C109.675 203.062 109.675 202.815 110.663 201.829C111.157 201.09 111.899 200.843 112.64 200.35C112.887 200.104 113.134 200.104 113.134 200.597H113.628C113.134 199.364 114.864 199.118 114.864 197.885C114.37 197.639 114.123 197.392 114.123 197.146H113.628C113.134 197.146 112.887 196.406 112.393 196.16C111.157 196.653 110.169 197.392 108.687 198.132C108.687 196.406 110.663 196.16 110.169 194.68C110.169 194.434 110.663 194.434 110.91 194.434C113.134 194.927 113.628 193.201 114.123 191.722C114.617 190.243 115.111 190.243 116.346 190.983H116.841C116.841 190.49 118.076 190.736 117.829 189.997C117.582 189.257 118.076 188.271 118.57 187.778C119.559 186.792 121.041 186.299 120.3 184.327C120.053 183.587 121.041 183.094 121.535 183.094C122.771 182.848 123.759 182.355 124.253 181.369C123.759 181.369 123.512 180.876 123.512 180.383C121.535 180.629 120.053 181.615 119.064 183.341C118.076 185.066 115.852 185.066 114.864 186.546C114.37 187.285 113.875 187.532 113.628 188.271C112.64 190.243 110.91 191.722 109.428 193.201C109.181 193.448 108.687 193.694 108.192 194.187C107.204 195.009 106.216 195.009 105.227 194.187C104.486 193.448 103.745 193.201 102.756 193.201C102.756 194.927 103.25 195.913 105.227 196.653C108.439 197.885 108.439 200.35 106.216 203.308C104.486 205.527 102.015 206.513 100.285 208.239C99.297 208.978 98.8028 207.992 98.0615 207.746C97.0731 207.499 97.8144 206.76 98.0615 206.267C98.3086 206.02 98.5557 205.774 98.0615 205.527H97.3202C97.0731 205.527 96.826 205.774 96.579 206.02C94.6022 208.239 92.3784 208.485 89.6604 208.732C87.4365 208.978 84.7185 208.239 82.7418 210.211C82.0005 210.704 80.2708 209.964 79.2825 209.225C78.5412 208.732 78.047 208.485 77.3057 208.732C76.3173 208.239 75.8232 207.746 75.329 207.006C75.0819 206.02 75.8232 205.281 76.0702 204.541C76.0702 204.048 76.8115 203.801 77.3057 203.555C77.7999 204.048 78.047 204.295 78.2941 204.788C79.5296 203.801 81.0121 203.801 82.2476 204.541H82.7418C83.9772 204.541 85.4598 205.281 86.6952 204.541C86.2011 203.801 85.2127 204.048 84.9656 203.308C84.2243 202.322 84.2243 201.09 85.2127 200.597C86.6952 199.857 87.1894 198.378 87.6836 197.146V196.406C86.2011 196.406 84.7185 196.653 83.2359 195.913C82.9888 195.913 82.9888 195.42 82.7418 195.42C82.2476 195.174 81.0121 195.174 81.2592 194.187C81.5063 192.955 82.7418 194.187 82.9888 193.941C85.2127 192.955 86.4481 194.434 87.9307 195.42C88.1778 195.174 88.4249 194.927 88.672 194.68C87.4365 192.215 86.9423 191.722 84.2243 191.969C82.9888 192.215 82.0005 192.215 81.0121 191.476C80.2708 190.983 79.7766 190.243 80.765 189.75C82.0005 189.011 81.7534 188.271 81.2592 187.285C80.2708 185.806 80.5179 185.559 82.2476 185.559C82.9888 185.559 83.483 183.834 84.4714 185.066H84.9656C84.9656 184.327 84.7185 183.834 85.954 183.341C89.1662 182.355 89.6604 182.355 91.8842 185.313C92.3784 186.052 93.1197 186.792 93.8609 187.532C94.3551 187.285 94.6022 186.792 94.6022 186.299C94.3551 186.052 93.8609 185.559 93.6138 185.066C93.1197 184.327 93.3667 183.834 93.3667 183.094C93.3667 182.108 94.3551 182.355 94.8493 182.355C95.8377 182.108 96.0848 180.629 97.3202 181.122L97.0731 180.876C94.6022 181.615 92.1313 179.89 89.6604 179.643C89.1662 179.643 88.9191 179.89 88.4249 179.89C86.6952 180.136 85.2127 179.15 84.7185 177.671C84.4714 176.685 85.7069 174.713 87.1894 174.713C88.1778 174.713 88.672 174.22 89.6604 174.22C90.1545 173.973 90.6487 173.727 91.1429 174.22C92.8726 175.945 94.3551 174.713 95.0964 173.727C96.3319 172.248 96.8261 172.987 97.3202 173.973C97.8144 174.466 97.8144 175.206 98.5557 175.452C99.297 174.959 98.5557 173.973 99.0499 173.48V172.741C98.8028 172.001 99.5441 171.755 99.5441 171.262C99.5441 170.029 100.038 169.783 101.027 169.783C102.015 169.783 102.756 169.536 103.498 169.29V168.797C103.498 168.55 103.25 168.303 103.25 168.057C103.003 167.564 104.486 167.317 103.745 166.578C103.25 166.085 102.509 166.578 102.015 166.824C100.285 167.564 98.8028 168.057 97.3202 166.085C99.0499 165.838 99.5441 164.606 99.7912 163.373C100.285 162.141 101.274 160.908 101.027 159.182C100.78 157.703 102.509 157.457 103.498 156.964C103.745 156.717 104.239 156.224 104.486 155.978C102.756 154.252 103.003 154.006 104.486 152.28C105.721 150.801 106.957 150.308 108.687 150.061C108.439 149.815 108.439 149.322 108.439 149.075C106.71 148.336 107.204 146.857 107.204 145.624C105.968 145.871 105.227 147.35 103.745 147.103C103.25 146.857 103.25 147.596 103.25 147.843C103.498 149.568 103.25 151.048 101.027 151.294C100.038 151.294 100.038 152.28 99.7912 152.773C99.0499 154.252 97.5673 155.238 96.3319 156.224C95.5906 156.717 94.6022 157.21 93.8609 156.224C93.1197 155.485 92.8726 154.252 93.6138 153.513C94.8493 152.527 95.0964 151.294 94.8493 150.061C94.8493 149.322 95.5906 148.829 96.0848 148.336C96.8261 147.843 97.3202 147.103 97.5673 146.364C96.2495 146.364 95.2611 145.871 94.6022 144.885H94.108C93.3667 146.117 93.3667 147.596 92.1313 148.582C91.39 149.075 90.8958 149.075 90.6487 148.089C90.4016 147.35 90.6487 146.857 90.4016 146.117C89.9074 144.885 89.4133 144.392 88.1778 145.378C87.6836 146.117 88.4249 147.103 87.4365 147.843C86.4482 148.582 85.7069 148.829 85.2127 148.089C84.4714 147.103 84.9656 146.61 85.954 146.364V145.871C84.7185 145.871 83.483 146.117 82.2476 146.364C82.4947 145.624 82.7418 145.131 82.7418 144.638H82.0005C80.2708 143.652 80.0237 143.406 80.5179 141.433C79.7766 141.433 79.2825 141.187 78.7883 140.694C77.7999 139.215 77.5528 137.489 77.0586 136.01C76.8115 135.024 77.7999 134.531 78.2941 134.038V133.299C77.3057 132.805 78.2941 131.573 77.3057 131.08H76.0702C75.8232 131.08 75.5761 130.833 75.5761 130.587C75.0819 130.094 75.0819 129.601 74.3406 129.354C73.3522 130.34 74.0935 131.573 73.8464 132.559C73.5993 133.792 73.3522 134.038 72.3639 133.299C71.6226 132.559 70.6342 132.066 69.6458 131.573C68.1633 130.833 66.6807 130.094 67.1749 127.875C67.422 127.136 66.9278 126.396 66.1865 126.396C65.1982 126.15 65.4453 125.41 65.4453 124.917C65.4453 124.178 65.6923 123.438 66.6807 123.438C66.9278 122.452 66.1865 121.219 67.1749 120.48C67.6691 119.74 68.4104 118.508 69.1516 120.233C69.8929 121.466 70.3871 122.698 71.1284 123.931H71.6226C72.1168 123.191 71.6226 122.698 71.6226 121.959C71.3755 120.48 71.6226 120.48 73.3522 119.74C73.5993 119.74 73.5993 120.48 73.8464 119.987C74.0935 119.74 74.0935 119.494 74.0935 119.247C74.0935 119.001 73.8464 118.754 73.5993 118.508C73.1051 118.015 72.611 116.782 71.8697 116.782C69.8929 116.536 70.8813 115.796 71.3755 115.057C72.1168 114.07 71.1284 113.331 71.6226 112.345C73.1051 112.345 74.3406 113.084 74.3406 114.563C74.3406 116.289 75.0819 117.029 76.3173 117.522C77.0586 118.015 77.3057 119.001 78.047 119.494C79.0354 119.001 80.0237 118.754 81.2592 118.261C80.0237 116.782 81.2592 114.563 80.5179 112.838C80.2708 112.591 80.2708 112.098 80.0237 111.605C79.5296 110.126 79.7766 109.633 81.2592 109.14C82.2476 108.894 82.7418 108.401 82.7418 107.415C82.7418 106.922 82.2476 106.429 82.9888 106.182C83.483 106.182 84.7185 105.935 84.7185 106.182C85.2127 107.415 86.6952 107.661 86.9423 108.647C87.4365 111.112 89.6604 112.591 91.1429 114.317C91.6371 114.563 91.39 115.057 91.39 115.55C90.6487 118.015 90.8958 120.726 90.8958 123.191C90.8958 124.671 90.8958 126.15 89.4133 127.382C90.4016 128.122 92.1313 128.861 90.8958 130.587C90.4016 131.326 91.39 131.819 91.6371 132.312H92.6255C92.8726 131.326 92.6255 130.094 92.8726 128.861C93.1197 127.136 92.8726 125.41 94.8493 124.424C95.0964 124.424 95.0964 123.684 95.0964 123.438C94.8493 122.945 94.6022 122.452 95.5906 122.452C96.0848 122.698 96.8261 122.698 96.8261 121.959C96.0848 120.233 96.3319 118.508 97.0731 116.782C97.3202 116.289 97.5673 116.043 98.0615 116.289C98.3086 116.536 98.5557 116.782 98.5557 117.029C98.0615 119.001 98.5557 121.219 97.5673 123.191C97.5673 123.931 97.5673 124.671 96.8261 125.164C95.3435 126.15 95.5906 127.629 96.0848 129.108C96.3319 130.587 97.0731 132.312 95.8377 133.792C96.3319 134.531 97.3202 134.038 97.5673 134.778C98.0615 135.024 98.5557 135.271 98.8028 135.517C99.7912 136.257 100.285 136.996 99.0499 137.982C98.3086 138.475 99.297 138.968 99.297 139.461C99.7912 140.694 101.027 140.694 102.015 140.447C103.25 140.201 104.239 138.968 105.721 138.722C106.216 138.722 106.216 137.982 106.216 137.736C106.71 135.764 107.451 134.038 110.169 134.038C111.157 134.038 110.663 133.052 110.169 132.559H109.922C109.675 132.312 109.428 132.066 109.428 131.573C108.192 132.312 106.957 132.805 105.968 133.545C104.733 134.038 103.992 133.792 103.25 132.805C102.509 132.066 101.768 131.08 103.003 130.094C104.486 128.861 103.003 127.875 102.509 127.382C100.532 125.41 100.78 123.191 101.521 120.973C101.768 120.48 102.015 119.987 101.768 119.494C101.027 118.015 102.509 117.275 103.25 116.782C103.992 116.289 104.98 117.029 105.474 117.768L105.968 118.261C106.957 118.015 107.204 117.522 107.204 116.782C106.216 115.057 106.216 113.084 104.239 112.098C103.745 111.852 103.992 111.605 103.992 111.112C104.239 110.373 104.486 109.387 104.733 108.647C105.227 106.429 105.968 106.429 107.698 107.661C107.698 107.661 108.192 107.661 108.439 107.908C108.934 106.922 108.192 106.429 107.451 105.935C106.71 105.442 105.968 105.196 105.227 104.949C104.239 104.456 103.498 103.963 103.745 102.977C103.992 101.498 103.745 99.7726 103.745 98.2936C103.745 97.3075 103.745 95.8284 105.474 95.5819C107.698 95.3354 108.192 95.3354 109.181 97.3075H110.169C110.663 97.3075 110.663 96.8145 110.416 96.3214C109.675 95.5819 109.922 94.5959 109.922 93.6098C109.922 92.8703 110.169 91.8842 111.157 91.8842C111.899 92.1307 113.381 92.1307 113.381 93.6098C113.381 95.0889 114.123 96.3215 115.605 97.061C116.593 97.554 116.841 96.8145 117.335 96.3214C117.088 96.3214 117.088 96.0749 116.841 96.0749C115.852 95.8284 115.358 95.3354 116.099 94.5959C116.841 93.6098 117.088 95.0889 117.582 95.3354C117.582 94.1028 118.076 93.6098 119.311 93.6098V92.8703C118.817 91.3912 120.053 91.6377 120.547 91.1447C120.794 90.8981 121.288 91.3912 121.288 91.6377C121.782 93.6098 123.265 93.1168 124.748 92.8703H125.983C125.983 92.6237 126.23 92.1307 126.477 91.8842C125.489 91.7199 125.077 91.309 125.242 90.6516V90.1586C124.5 89.6656 124.006 88.6795 122.771 88.926H121.288C120.3 88.1865 120.794 87.447 120.794 86.7074H120.3C119.064 88.433 118.817 86.7074 118.076 86.2144C118.076 86.7074 117.829 86.9539 117.335 86.9539C117.088 86.9539 117.088 86.7074 117.088 86.2144V85.7214C116.099 85.4748 115.852 84.9818 116.346 83.9958C116.593 83.7492 116.593 83.2562 116.593 83.0097C116.593 82.5167 116.841 82.2702 117.088 81.7771C117.335 81.5306 117.335 81.0376 117.582 80.7911C118.323 79.312 119.064 79.0655 120.053 80.2981C120.547 81.0376 120.794 81.7771 122.03 81.5306C122.524 81.5306 122.771 82.7632 123.512 81.7771C124.253 81.0376 124.748 80.2981 124.006 79.312C123.512 79.0655 123.265 78.3259 123.512 77.8329C123.759 76.6003 123.512 75.6143 122.771 74.8748C121.288 73.6422 121.535 71.6701 119.806 70.4375C118.817 69.698 120.053 68.9584 120.3 68.2189C121.041 67.9724 121.288 68.9584 121.535 69.2049C122.524 70.191 123.594 70.4375 124.748 69.9445C124.748 69.2049 124.006 68.7119 124.748 68.2189C125.489 67.7259 125.489 68.9584 125.983 69.2049C127.218 69.4514 128.701 69.698 129.936 68.7119C130.184 68.2189 130.431 68.2189 130.925 68.2189C130.184 66.9863 129.689 65.5072 128.701 64.5212C127.713 63.2886 128.701 61.563 127.218 60.577C126.724 60.3304 127.218 59.5909 127.713 59.8374C129.195 60.3304 129.442 59.8374 129.442 58.6048C129.442 58.3583 130.184 58.3583 130.431 58.3583C130.678 58.1118 130.925 58.1118 131.172 58.1118C131.172 57.6188 130.925 56.8792 131.666 56.3862C131.666 55.8932 131.913 55.6467 132.16 55.6467V54.6606C131.172 53.9211 130.184 52.935 130.678 51.4559C131.172 50.4699 131.172 49.2373 132.902 48.9908C134.137 48.7443 134.384 47.2652 134.631 46.2792V44.5536C134.631 42.5814 134.878 42.3349 136.608 43.321C136.855 43.5675 137.102 43.814 137.349 43.814C139.82 44.4714 141.55 45.3753 142.538 46.5257C142.785 46.5257 143.032 46.5257 143.032 46.0326C143.032 45.7861 142.785 45.2931 143.28 45.0466C143.527 45.0466 143.774 45.0466 144.021 45.2931C144.762 46.7722 146.245 47.7582 147.727 48.4978C148.716 48.7443 148.716 49.7303 148.221 50.4699C147.48 51.7025 146.245 52.1955 145.998 53.4281V54.1676C146.986 53.6746 148.221 53.4281 148.468 51.949C148.468 51.7025 148.963 51.2094 149.21 51.2094C150.692 50.9629 150.445 49.9769 150.445 48.9908C150.445 47.0187 151.186 46.5257 152.916 47.0187C154.399 47.5117 156.128 48.2513 156.87 49.9769C157.117 50.4699 157.611 50.7164 157.858 50.9629C157.858 50.4699 157.364 49.9769 158.352 49.9769C158.846 49.9769 159.341 50.2234 159.588 49.4838C159.835 48.4978 160.329 48.4978 160.823 49.4838C160.823 49.9769 161.07 49.7303 161.317 49.4838C161.811 48.9908 162.059 48.7443 162.306 49.7303C162.8 50.9629 163.788 51.2094 164.282 50.2234C164.53 49.2373 164.53 48.4978 165.765 49.2373C166.506 49.4838 166.506 48.0047 167.248 47.7582C167.989 47.5117 168.483 48.4978 169.224 48.2513C169.966 47.2652 169.966 45.7861 171.201 45.2931C172.189 45.5396 171.695 46.2792 171.942 46.7722C172.189 47.5117 172.189 48.2513 173.425 47.7582C173.672 47.5117 174.166 48.0047 174.66 48.2513C174.907 48.4978 175.649 48.7443 175.649 48.7443C176.884 47.5117 178.367 47.7582 179.602 47.7582C181.332 47.7582 182.073 46.5257 182.814 45.5396C184.544 43.5675 187.015 43.5675 188.992 42.5814C189.486 42.3349 189.98 42.828 189.98 43.321C189.98 43.5675 189.486 44.0605 188.498 42.5814C189.98 41.8419 191.71 40.8559 193.439 42.5814C193.686 42.828 194.181 42.828 194.428 42.3349C194.428 42.0884 194.675 41.5954 194.428 41.3489C193.934 40.8559 193.439 40.3628 192.945 39.8698C192.451 39.1303 191.957 38.3907 192.698 37.6512C193.192 37.1581 193.934 36.9116 194.181 37.6512C194.675 39.6233 195.91 39.1303 197.146 38.3907C198.134 37.8977 199.37 37.6512 200.358 37.4047C200.852 37.4047 201.593 37.4047 201.593 37.8977C201.841 39.6233 202.829 39.3768 203.817 38.8837C204.311 38.6372 205.053 38.6372 205.547 38.6372C206.288 38.6372 206.535 39.1303 206.535 39.8698C206.288 40.3628 206.535 41.1024 206.288 41.3489C205.053 43.321 205.547 46.0326 203.817 48.0047C203.57 48.2513 203.323 48.7443 203.323 49.2373C203.076 50.4699 203.323 51.2094 204.806 51.2094C206.288 50.9629 206.041 51.949 206.041 52.6885C205.547 56.8792 203.57 60.3304 200.852 63.5351C199.617 64.7677 197.64 65.0142 196.157 65.7537C194.181 66.7398 192.945 67.9724 191.957 69.9445C190.968 72.4096 189.239 74.3817 187.015 75.8608C184.791 77.3399 183.309 79.5585 181.085 81.0376C179.108 82.2702 177.873 83.7493 177.378 85.9679C177.131 87.6935 175.896 88.433 173.919 88.433C171.695 88.433 170.213 90.4051 170.707 92.6237C171.201 94.1028 170.213 94.8424 169.966 96.0749C169.718 96.568 169.224 96.8145 168.483 96.568C167.742 96.3215 167.248 96.8145 166.753 97.3075C167.742 98.6222 168.812 98.8688 169.966 98.047C170.707 97.3075 171.448 97.3075 172.436 97.8005C174.413 99.0331 175.649 98.7866 177.378 97.061C177.873 96.568 178.367 95.5819 179.108 96.0749C179.849 96.8145 178.861 97.554 178.614 98.047C178.12 99.2796 177.625 100.512 177.131 101.745C176.884 102.731 176.637 103.47 175.896 103.963C173.919 104.949 172.684 106.922 171.695 108.647C170.46 110.866 168.73 112.838 167.248 115.55C169.471 114.81 171.201 114.81 172.931 115.796C174.413 116.536 176.143 115.796 177.378 114.563C178.614 113.084 180.343 112.098 181.826 110.866C182.567 110.373 183.309 109.633 184.297 109.88H185.532C186.274 109.387 187.015 109.633 187.756 109.633C188.498 109.387 188.992 109.14 189.486 108.647C191.71 105.689 196.157 104.703 199.123 106.675C200.111 107.415 201.099 107.908 202.335 107.908C203.076 107.908 203.817 107.908 204.311 108.154C207.277 109.387 210.242 109.387 212.713 107.168C213.454 106.429 214.442 106.429 215.678 107.168C216.913 107.908 218.643 107.661 220.125 107.908C221.114 107.908 222.102 107.908 223.091 108.154C226.056 109.14 229.021 109.387 231.986 108.647C232.974 108.401 234.21 108.894 234.704 107.415C234.951 106.922 235.692 106.922 235.939 107.415C236.681 108.647 237.916 108.154 238.904 108.647C239.152 108.894 239.893 108.647 240.14 108.401C241.87 106.182 244.093 107.168 246.07 106.675C246.811 106.429 247.306 106.429 247.553 107.168C247.8 107.908 248.294 108.154 249.282 108.154C249.777 107.908 250.271 108.154 250.518 108.647C251.506 110.373 252.989 111.605 253.977 113.084C254.718 114.07 254.718 115.303 254.966 116.536C255.213 117.768 255.46 118.754 256.448 119.494C257.189 119.987 256.942 120.726 256.695 121.466C256.448 122.945 256.695 124.917 255.707 126.396C255.46 126.889 255.213 127.382 254.966 127.875C252.989 130.094 251.012 132.312 249.035 134.531L248.788 134.778H248.541C248.541 137.489 247.306 139.954 246.564 142.42C246.07 143.899 245.576 145.131 246.811 146.61C247.8 147.596 247.306 148.829 246.811 149.815C245.823 152.527 244.588 154.992 243.105 157.457C242.364 158.689 242.117 159.922 242.117 161.401C242.117 163.866 241.375 166.085 239.893 168.057C238.904 169.783 237.669 171.262 236.681 172.987C236.434 173.48 235.939 174.22 235.198 174.466C232.48 175.206 232.48 177.671 232.233 179.643C231.986 180.383 231.986 180.876 231.492 181.369C230.503 182.355 230.503 183.341 230.503 184.82C230.503 186.792 229.762 188.764 228.032 189.75C227.291 190.243 226.303 190.736 225.809 191.722C225.314 192.708 224.573 193.201 223.585 193.694C223.338 193.941 223.091 194.187 222.843 194.187C221.608 194.68 222.102 196.653 220.867 196.653C219.878 196.653 218.89 196.16 217.654 196.406C217.407 196.406 217.16 196.653 216.913 196.899V197.392C218.149 197.885 218.643 198.378 218.643 199.611C218.643 200.597 218.396 201.583 218.149 202.569C219.878 204.541 222.102 205.281 224.573 206.02C225.809 206.513 226.55 208.239 227.291 209.471C227.538 209.718 227.044 210.457 226.797 210.704C224.079 213.416 221.114 215.388 217.16 215.881C216.419 215.881 216.419 215.634 216.172 214.895C215.431 213.416 214.442 213.169 212.96 213.909C211.477 214.895 210.489 216.127 209.253 217.36C208.512 218.346 207.524 219.332 206.535 220.071C205.794 220.564 205.3 221.057 205.3 222.043C205.3 224.016 203.57 225.002 202.088 225.002C199.37 225.002 197.64 226.727 195.663 227.96V228.453C196.404 228.453 197.393 227.96 197.887 228.453C199.123 229.932 200.852 229.685 202.582 229.439C204.559 229.192 206.041 229.685 207.524 230.918C208.759 231.904 209.995 232.397 211.477 231.165C211.724 230.918 212.218 230.671 212.466 230.671C214.689 230.178 215.678 228.699 216.419 226.727C216.666 225.495 217.654 224.509 218.396 223.523C219.137 222.783 225.314 223.03 226.056 224.016C226.55 224.755 226.55 225.741 227.291 226.234C227.785 226.481 229.762 227.467 230.256 227.467C230.503 227.467 230.997 227.467 231.245 227.713C233.221 229.685 236.186 229.685 237.669 232.151C238.163 232.89 238.657 232.89 239.399 232.89C241.375 233.137 243.105 233.383 244.835 233.63C245.823 233.876 246.564 233.876 246.564 234.862C246.564 235.109 246.564 235.848 246.811 235.848C249.282 236.588 249.035 239.053 250.024 240.532C251.012 242.011 252 243.49 252.742 245.216C253.483 247.434 255.46 248.667 257.436 249.9H258.919C261.39 249.9 261.39 250.146 260.649 252.611C262.625 253.597 261.39 254.83 261.143 256.309C263.861 254.83 266.579 256.062 267.073 259.267C267.32 259.514 266.826 260.007 267.073 260.253C269.791 261.732 268.556 264.69 270.038 266.416C270.779 267.156 270.285 268.635 269.791 269.621C269.05 271.1 269.544 272.332 270.038 273.565C270.532 273.811 270.532 274.058 270.532 274.304C272.756 275.537 271.768 277.263 271.027 278.988C271.027 280.221 271.274 281.453 272.509 282.193C273.992 283.179 273.25 284.905 274.239 285.891C274.239 286.137 273.497 286.877 273.003 287.616C273.497 288.109 273.992 289.095 274.98 289.095C274.98 288.849 275.227 288.849 275.474 289.095C275.721 289.342 275.474 289.588 274.98 289.588C273.992 290.328 273.992 291.314 274.733 292.053C276.71 293.779 276.71 296.244 278.439 297.97C280.663 299.942 280.91 302.654 280.663 305.365C280.416 307.091 280.91 308.816 281.652 310.295C281.899 310.788 282.146 311.281 282.146 311.775C281.899 314.486 284.122 315.965 285.358 317.691C285.605 317.937 286.099 318.43 286.593 318.43C288.076 318.43 288.57 318.923 288.076 320.649C287.582 322.128 289.311 323.854 291.535 324.593H292.029C294.5 326.319 297.218 327.551 299.936 329.03C301.666 328.291 303.396 328.784 304.384 330.017C305.62 331.496 307.102 331.742 308.338 332.482C309.326 333.221 310.561 333.961 312.044 334.207C314.021 334.454 315.503 336.426 315.503 338.398C315.503 339.138 315.503 339.877 316.492 339.877C317.233 340.124 317.727 340.37 317.974 341.11C318.715 343.082 320.939 344.314 320.692 346.779C322.422 348.505 322.669 351.217 325.387 351.956C326.622 352.203 327.611 352.942 327.611 354.421C327.611 355.654 328.846 356.394 330.082 356.64C332.306 357.133 334.035 357.873 335.765 359.352C335.518 360.091 335.024 360.338 334.282 360.338C332.306 360.584 331.317 361.817 331.07 363.789C331.07 365.021 331.07 366.254 331.317 367.24C332.553 370.691 333.788 373.896 335.518 377.101C336.259 378.333 337.495 379.073 337.989 380.305C339.965 382.524 341.942 384.496 343.178 387.208C343.672 388.687 345.154 389.673 346.143 390.905C348.12 393.124 348.12 394.85 346.39 397.068C346.143 397.068 345.896 396.822 345.896 396.822C346.637 393.864 346.143 393.124 343.178 392.385C342.189 392.138 340.954 392.385 339.965 392.878C337.989 393.864 336.259 393.371 334.529 392.138C333.294 391.398 332.058 390.166 331.07 388.933H330.576C330.082 389.673 329.835 390.412 330.576 391.398C333.047 394.11 335.765 396.082 339.224 397.315C340.213 397.808 340.954 398.054 341.448 399.287C341.942 401.013 342.931 402.245 344.66 402.985C345.649 403.478 346.39 404.217 347.131 402.492C347.378 401.752 348.12 402.492 348.367 402.985C349.355 404.464 349.602 406.189 350.096 407.915C350.59 409.147 351.332 410.38 352.073 411.613C354.544 415.064 356.768 418.762 358.497 422.706C359.486 425.417 358.25 428.129 357.756 430.594C357.756 430.841 357.756 431.087 357.509 431.087C353.308 432.813 351.826 437.004 349.108 439.962C347.131 441.687 345.402 443.906 344.66 446.618C348.12 446.371 351.085 447.604 352.814 450.808C353.556 452.287 354.791 452.78 355.779 452.287C357.756 451.548 358.992 452.041 360.227 453.027C362.204 451.301 363.192 449.329 363.439 446.864C363.686 445.385 364.675 444.152 364.922 442.427C365.169 440.948 366.899 439.715 368.628 439.469C370.358 439.222 372.088 439.222 373.817 439.469C376.288 439.962 378.512 438.729 380.736 438.976C382.713 439.222 384.689 439.715 386.419 438.236C386.913 437.99 387.901 438.483 388.643 438.729C390.867 439.469 393.09 439.715 395.561 439.715C398.032 439.715 400.503 440.208 402.48 441.687C406.186 443.906 409.646 446.371 413.105 448.59C415.823 450.315 417.8 452.78 418.788 455.985C419.035 456.725 419.282 457.464 419.776 458.204C420.765 459.683 421.259 461.408 421.012 463.134C420.765 465.106 421.012 466.832 421.753 468.557C422.247 470.036 422.494 471.762 422.742 470.036C421.753 473.241 422.247 476.692 420.271 479.65C418.541 482.362 418.294 485.074 418.541 488.032C418.788 490.99 417.8 493.702 417.553 496.413C417.306 497.153 416.811 497.646 416.317 497.892C413.105 499.618 411.375 503.069 409.399 505.781C408.904 506.52 408.41 507.506 407.669 507.753C405.692 508.739 404.21 510.465 402.974 512.19C405.445 513.176 405.445 513.916 403.963 516.381C402.233 519.339 399.515 521.311 396.056 522.051C394.573 522.297 394.326 521.804 394.079 520.818H392.349C392.102 520.818 391.855 520.818 391.608 521.065C390.455 522.051 389.219 522.215 387.901 521.558C387.407 523.53 386.089 524.68 383.948 525.009C382.96 525.009 382.218 525.255 381.23 525.502C381.23 526.242 382.218 526.241 382.218 526.981H382.713C382.713 526.241 383.207 525.995 383.948 525.995C385.678 526.242 386.913 525.748 387.901 524.516C388.89 523.53 390.125 523.776 390.372 525.502C390.62 527.967 390.62 530.432 389.878 532.897C391.608 533.144 391.608 533.637 390.867 534.376C389.631 535.363 388.89 536.842 387.654 537.828H386.666C386.419 539.307 384.936 540.539 383.454 540.293C381.477 540.293 379.747 540.046 377.771 540.046C377.029 540.046 376.535 540.293 376.288 541.279C376.041 542.511 374.806 542.758 373.817 542.018C373.57 542.511 373.076 543.004 372.829 543.497C375.3 543.497 377.771 544.237 380.242 543.991C381.477 543.991 381.724 545.223 381.724 546.456C381.724 546.702 381.971 546.949 382.218 547.195C382.96 546.209 383.948 545.47 385.183 546.456C386.172 547.195 387.16 547.195 388.149 547.195C390.125 546.949 390.867 548.428 391.855 549.66C392.596 550.646 390.619 551.139 391.361 552.125C394.573 551.879 397.291 550.4 400.256 549.66C403.963 548.674 407.916 548.921 411.622 547.688C413.599 546.949 414.835 547.935 415.082 549.66C415.576 551.386 414.587 552.865 412.858 553.112C411.375 553.358 411.375 554.098 411.869 555.084C412.117 555.577 412.117 556.07 412.611 556.563C415.082 559.521 414.34 562.479 413.352 565.437C412.611 567.656 410.387 568.642 408.163 569.381C405.692 570.367 403.221 571.354 400.503 572.34C396.55 573.572 394.82 577.763 395.561 581.954C395.808 583.433 395.561 583.926 393.832 583.926C392.102 583.679 390.62 583.433 389.137 582.94C387.901 582.447 386.913 582.693 386.172 583.679C385.925 583.926 385.431 584.172 385.183 584.419C382.713 588.116 378.759 589.103 374.806 590.582C374.064 590.828 373.076 591.075 372.335 591.321C368.875 592.307 366.652 594.772 365.169 597.731C364.675 599.21 363.933 599.456 362.945 598.963C360.721 597.731 358.003 597.731 356.026 596.251C355.779 596.005 355.285 595.758 355.038 595.758C351.085 595.758 347.378 593.786 343.178 594.033C340.707 594.033 338.236 594.033 336.012 595.019C335.024 595.512 333.788 595.512 332.8 595.512C329.093 595.265 325.634 596.498 322.175 597.484C320.939 597.977 319.704 597.977 317.974 597.731C318.468 598.963 318.468 600.196 317.727 601.182C317.233 601.675 316.492 602.168 315.997 601.428C315.009 599.456 312.538 599.21 311.056 597.977H310.067C308.832 598.224 307.596 597.977 306.608 597.484H306.114C304.878 598.224 303.89 599.703 302.407 597.977H301.913C300.925 598.717 299.689 598.717 298.701 597.977C296.724 596.744 294.747 595.512 293.265 594.033C293.018 593.786 292.524 593.54 292.277 593.293C292.029 593.293 291.782 593.54 291.535 593.786C291.535 594.033 291.782 594.033 291.782 594.279C291.782 595.019 293.265 595.265 292.771 596.498C292.277 597.977 291.041 597.73 290.053 597.977H289.311C289.064 598.224 289.064 598.717 288.57 598.963C288.323 599.21 288.076 599.456 287.829 599.456C285.111 599.456 283.381 600.935 282.393 603.647C279.922 600.689 276.957 601.428 274.239 601.675C273.992 602.414 274.486 602.661 274.733 602.907C274.98 603.4 274.486 603.647 273.992 603.647C273.25 603.4 272.756 603.154 272.262 603.154C269.297 602.661 266.579 602.907 264.602 605.372V606.112C264.849 607.591 265.096 609.07 264.602 610.796C264.355 611.782 264.108 612.521 262.872 612.521C262.131 612.521 261.39 612.768 260.896 613.014C260.649 613.261 259.907 613.261 259.66 613.014C257.436 610.796 254.471 610.549 251.506 610.549C249.529 610.549 247.306 610.549 245.329 609.563C244.588 609.07 243.846 609.07 243.105 609.81C242.611 610.303 242.364 610.796 241.622 610.549C241.87 611.289 242.117 611.782 241.375 612.275C241.128 613.507 242.117 613.754 242.858 614.247C244.341 615.233 244.588 615.233 243.599 616.959C243.352 617.452 243.352 617.945 242.611 618.191C241.375 617.205 242.117 615.479 241.128 614.493C240.387 613.507 239.152 612.768 238.163 611.782C237.916 611.782 237.669 611.782 237.669 611.535C234.951 608.084 230.75 607.098 227.538 604.633C226.55 603.893 225.314 604.386 224.326 603.893C222.349 602.907 220.373 603.154 218.643 604.633C218.396 604.879 217.902 605.126 217.407 605.126C214.442 604.879 211.724 606.852 208.759 606.852C208.018 606.852 207.524 607.098 207.029 607.591C205.794 609.563 203.57 610.303 202.088 611.782C201.593 612.275 201.346 612.521 200.852 612.275C199.123 611.535 198.628 613.014 197.887 614.247C197.393 615.233 197.146 616.466 196.404 617.452C195.663 618.191 195.416 619.67 196.404 620.903C196.899 621.642 197.146 622.135 197.393 622.875C196.899 623.861 195.91 623.614 195.169 623.861C194.181 624.354 193.686 624.847 193.686 625.833C193.686 626.573 194.428 626.819 195.169 627.066C195.663 627.312 196.404 627.066 196.652 627.805C196.652 628.545 195.91 628.545 195.663 629.284C195.169 631.503 193.192 632.489 191.463 633.722C189.486 634.954 189.239 637.173 188.745 639.145C188.745 639.391 189.486 640.377 188.745 640.377C187.509 640.624 186.768 642.35 185.779 641.857C184.05 640.87 182.32 641.61 180.838 641.117C179.602 640.624 178.614 640.377 178.861 638.652C179.108 637.666 177.625 636.926 178.861 635.94C177.625 636.187 176.39 635.694 175.649 635.201C174.413 634.215 173.672 634.215 172.436 634.954C171.201 635.447 170.213 636.187 169.224 634.461C169.224 634.461 168.73 634.215 168.483 634.215C167 633.722 166.259 632.653 166.259 631.01C164.777 631.256 164.035 632.242 163.541 633.229C162.8 634.215 162.059 633.968 161.811 633.229C160.823 631.256 158.846 631.01 157.117 630.763C155.881 630.517 154.893 630.763 153.657 630.763C152.669 630.763 151.681 630.763 150.939 631.749C149.951 632.735 148.716 633.475 146.986 632.735C145.256 632.242 143.527 632.489 142.044 632.982C140.561 633.229 140.809 632.242 140.561 631.256C140.067 631.503 139.82 631.996 139.573 631.996C136.855 632.735 136.361 634.708 136.114 636.926C135.867 637.666 135.867 638.159 135.867 638.898C135.867 639.884 135.125 640.377 134.137 639.884C131.913 638.898 131.913 639.145 130.431 640.87C130.184 641.364 129.689 642.103 129.442 641.857C127.466 640.624 127.713 642.35 127.466 643.336C127.218 643.336 127.218 643.582 127.218 643.582C126.477 644.075 126.477 645.554 125.242 645.308C124.253 645.061 124.748 643.829 124.5 643.089C124.5 642.596 124.253 642.103 124.006 641.61H123.512V642.843C123.018 644.568 122.03 646.294 122.03 648.266C121.782 648.759 121.535 649.005 121.288 649.498C123.018 650.731 123.265 651.964 122.277 653.443C122.03 653.936 121.535 654.182 121.535 654.675C121.288 656.154 120.547 656.401 119.311 655.908C117.829 655.415 117.582 656.401 117.088 657.387C116.841 658.126 117.335 659.606 115.852 659.606C114.617 659.606 114.37 658.373 113.875 657.633C113.381 656.647 112.887 655.661 112.887 654.429C112.887 653.196 111.899 651.471 110.663 650.731C109.181 649.991 107.945 648.266 105.968 649.005C105.474 649.252 105.227 648.759 104.98 648.266C104.486 647.28 103.745 647.033 102.756 646.787C101.521 646.294 100.532 647.28 100.532 648.759C100.532 650.238 100.285 651.471 98.3086 651.717C97.8144 651.717 97.3202 652.21 96.8261 652.457C96.3319 652.703 96.0848 653.689 95.5906 653.196C94.8493 652.457 94.108 653.196 93.3667 652.703C92.8726 652.21 92.6255 651.471 92.1313 650.978C91.6371 650.485 91.8842 649.745 92.3784 649.252C92.8726 648.512 92.3784 647.773 92.3784 647.033C91.8842 644.568 92.6255 643.582 95.0964 643.089C95.8377 643.089 96.3319 642.843 96.579 642.35C97.8144 640.131 100.285 640.131 102.262 639.145C103.003 638.652 103.498 638.898 103.992 639.884C104.733 641.857 105.474 641.856 106.71 640.131C106.957 639.884 106.957 639.391 107.204 638.898C107.451 638.159 107.698 637.912 108.439 637.912C111.157 638.159 112.146 635.447 114.123 634.708C114.37 634.708 114.37 633.968 114.617 633.475C114.617 632.982 114.864 632.489 115.358 632.489C117.829 632.489 118.323 630.27 118.323 629.038C118.57 626.326 120.3 625.833 122.03 625.094C123.265 624.354 124.748 622.875 124.253 621.642C123.512 619.424 124.995 617.698 123.759 614.986C125.736 616.219 126.724 616.712 127.96 614.986C128.701 613.754 128.701 615.726 129.442 615.726C129.689 615.233 129.936 614.986 129.936 614.493C129.936 613.507 129.442 612.521 131.419 613.014C132.407 613.014 133.89 612.275 135.125 612.275C135.867 612.275 136.361 612.028 136.361 611.289C136.608 610.303 137.102 609.81 137.102 608.824C137.102 607.838 137.102 606.358 138.832 606.852C139.573 605.126 142.785 605.619 143.032 602.907C143.032 602.168 144.021 601.182 144.762 600.935C146.492 600.196 146.492 598.963 146.492 597.237C146.492 594.033 146.245 590.828 147.48 587.87C147.974 586.637 147.727 585.405 147.974 584.172C148.468 582.693 149.21 582.447 150.445 582.693C151.928 582.94 153.163 582.94 154.399 583.926C156.623 585.405 157.858 585.158 159.341 582.693C160.082 581.461 160.823 579.982 162.553 579.735V579.242C161.811 578.502 162.306 577.27 161.811 576.53C161.317 575.791 160.329 575.298 160.329 574.065C161.811 574.065 162.306 573.079 162.059 571.6C162.059 570.121 162.306 569.381 163.788 569.381C166.012 569.381 167.989 567.409 170.213 568.888C172.436 567.656 175.154 568.149 177.378 566.916C178.367 566.423 179.108 566.177 179.849 566.67C181.085 567.656 181.332 566.423 181.579 565.684C185.038 567.163 188.25 568.395 192.204 567.409C194.428 566.916 196.899 567.656 198.628 569.628C198.875 570.121 199.122 570.614 199.864 570.614C201.346 570.861 203.076 571.107 204.559 570.86C206.288 570.614 208.018 570.121 209.747 569.628C210.489 569.381 211.23 569.135 211.971 569.381C213.454 570.121 214.689 569.135 216.172 569.135C216.913 569.135 216.913 568.149 216.666 567.656C215.925 566.177 215.678 564.698 215.678 562.972C215.678 561.986 215.184 561.246 216.419 560.753C217.16 560.507 216.913 559.274 217.407 558.535C218.643 556.316 218.396 556.316 221.114 557.056C221.114 552.865 223.832 550.893 226.797 549.414C229.021 548.428 230.75 547.195 230.997 544.484C231.245 543.744 231.492 543.251 231.986 542.758C234.21 541.032 235.198 538.567 236.928 536.349H235.939C234.951 537.088 234.21 537.828 233.716 538.814C230.997 543.251 226.797 545.47 222.349 547.195C221.114 547.688 219.137 548.181 217.902 546.209H217.407C216.172 548.181 214.442 549.66 212.218 550.646C210.489 551.386 209.006 552.865 209.253 555.084C209.253 556.563 209.006 556.809 207.277 556.809C205.053 556.809 202.335 557.056 200.111 558.042C199.864 558.288 199.37 558.535 199.123 558.288C197.64 556.563 195.663 557.302 193.686 557.056C192.451 556.809 191.71 556.316 191.216 555.33C190.474 553.605 188.498 552.865 188.003 551.139C187.756 550.646 187.015 550.4 186.768 550.893C185.285 553.112 184.791 551.386 184.297 550.4C183.061 547.688 181.332 545.47 179.849 543.004C179.355 542.018 178.367 542.018 178.12 541.525C177.131 540.293 176.884 541.525 176.143 541.772C175.896 542.018 175.649 542.018 175.402 542.018C173.672 541.772 172.931 542.511 173.178 544.237C173.178 545.223 172.931 545.963 171.695 545.223C171.448 544.977 170.707 544.73 170.707 544.73C169.471 546.702 167.989 544.977 166.753 544.977C166.259 544.977 165.765 544.977 165.518 545.47C164.035 547.688 162.306 547.935 160.576 546.209C160.329 545.963 160.082 545.47 159.835 545.47C158.846 545.223 158.599 544.73 158.599 543.497C158.599 542.018 158.352 540.786 160.082 540.046C160.576 539.8 160.576 539.06 161.07 538.814C162.306 541.279 164.035 541.279 167.989 538.814C167.495 538.321 166.753 538.321 166.259 538.567C165.765 538.567 165.271 538.814 165.024 538.321C164.035 536.595 162.8 537.088 161.317 537.335C157.858 537.828 156.623 536.842 155.14 533.39V531.172C154.893 531.172 154.893 530.925 154.646 530.925C151.928 533.39 148.221 532.897 145.009 532.897C142.291 532.897 142.044 532.897 141.797 535.363C141.55 536.842 141.056 537.828 140.561 539.06C138.338 539.06 136.114 539.307 133.89 539.553C133.396 539.8 132.902 540.046 132.655 540.539C131.666 542.018 130.431 542.265 128.948 541.525C127.96 541.032 126.724 541.032 125.489 540.786C124.5 540.539 124.006 540.293 124.253 539.307C124.5 538.074 124.253 537.335 123.018 536.842C122.771 536.595 122.524 536.102 122.524 535.856C122.524 535.363 122.524 534.869 123.018 534.623C123.512 534.376 123.759 534.623 124.006 534.87C124.5 535.116 124.995 536.595 125.489 534.87C124.995 534.376 124.748 534.13 124.253 533.637C122.277 532.651 122.03 532.651 121.041 534.376C120.3 535.609 119.064 535.609 118.817 534.376C118.57 533.144 117.829 533.39 117.088 533.144C116.346 532.897 116.099 531.665 116.593 531.665C118.57 532.158 118.323 529.446 120.053 529.693C120.3 528.214 122.03 529.939 122.524 528.707C123.018 527.721 122.277 526.735 122.277 525.748C122.524 523.776 122.277 523.53 120.3 523.037C118.57 522.544 116.841 522.79 114.864 522.79C114.37 523.53 113.875 523.283 113.134 523.283C112.64 523.776 112.393 524.023 112.146 523.283C111.899 523.037 111.899 522.544 112.146 522.297C112.146 522.051 112.393 521.804 112.64 521.804C112.64 521.558 112.887 521.558 113.134 521.558H113.381C113.628 520.325 113.381 518.846 115.358 519.093C116.099 519.093 117.088 518.6 117.335 518.107C118.323 516.134 120.3 516.381 121.782 515.641C123.265 515.148 123.759 514.655 123.759 513.176C123.759 511.204 124.253 510.958 125.983 510.958C126.23 510.958 126.971 511.451 127.218 511.204C128.454 510.711 129.442 510.465 128.948 512.437C128.948 512.93 129.442 513.176 129.936 512.93C131.172 512.437 130.925 511.204 131.666 510.465C132.655 510.958 132.902 512.683 134.384 511.944V510.958C134.137 510.711 133.643 509.972 134.137 509.972C137.349 509.972 138.091 507.753 138.832 505.534C139.079 504.795 139.573 504.548 140.067 504.055C140.809 503.069 141.303 503.809 141.797 504.055C142.044 503.562 142.538 503.316 143.032 503.562C144.762 503.809 146.492 502.083 148.468 503.316C148.963 503.562 149.704 502.823 149.951 502.33C150.445 501.344 150.939 500.358 152.422 500.358C152.916 500.358 153.41 499.372 153.905 498.878C154.893 497.892 155.387 496.413 157.117 497.399H157.364C159.588 495.674 162.8 495.427 164.035 492.469C164.035 492.223 164.282 491.976 164.282 491.976C167.495 490.25 167.495 486.553 168.483 483.841C169.471 481.869 170.46 479.65 170.213 477.432C170.213 475.953 170.954 474.474 168.977 473.734C168.73 472.008 166.753 471.022 167 469.05C167.248 467.325 168.236 466.092 169.471 464.86C170.707 463.627 170.707 462.887 169.718 461.408C168.73 460.176 168.236 458.697 167.248 457.464C166.506 456.478 165.765 455.492 167.248 454.013C167.989 453.273 167.248 451.301 166.506 450.069C165.518 448.343 163.788 449.083 162.306 448.836C158.599 448.59 155.387 449.576 152.669 452.287C151.928 453.027 151.681 453.766 151.928 454.753C152.175 455.492 152.422 456.725 151.186 456.725C150.445 456.725 148.963 457.957 148.963 455.739C148.963 454.999 146.739 454.013 145.998 454.753C144.762 455.492 143.774 455.492 142.538 455.492C142.044 455.492 141.55 455.492 141.303 456.232C141.303 456.478 140.809 456.971 140.314 456.725C139.82 456.232 139.326 455.492 139.82 454.999C141.056 453.766 140.809 451.548 142.785 450.562C144.021 450.069 144.268 448.343 145.503 447.604C146.739 446.864 147.48 445.878 149.21 445.878C149.457 445.878 149.951 445.878 150.198 445.631C151.928 443.906 154.152 442.427 155.881 440.701C157.117 439.469 157.858 437.743 157.611 435.771C157.364 434.785 157.364 433.799 158.105 433.059C156.623 433.306 155.634 432.32 154.646 431.58H154.152C153.905 432.073 153.657 431.58 153.41 431.334C152.916 430.594 153.163 429.115 151.434 429.362C151.186 429.362 150.939 429.115 150.939 429.115C151.186 427.143 149.21 426.157 148.963 424.431C147.48 425.253 146.409 424.924 145.75 423.445C145.503 422.952 145.009 422.706 144.515 422.459C142.538 421.72 142.538 420.98 143.28 419.008C144.515 418.022 145.998 419.008 147.233 418.022C148.716 417.036 148.468 415.803 147.974 414.571C147.48 413.092 147.974 412.599 149.21 412.845H149.704C151.681 413.092 152.916 410.38 155.387 411.859C156.87 412.845 159.093 412.599 161.07 413.338C161.317 414.571 160.576 416.543 162.8 416.789C163.294 417.036 163.294 417.529 163.294 418.022C163.294 419.008 164.282 419.994 163.788 421.473C166.012 420.487 167.742 419.501 169.966 419.994C170.954 420.241 171.448 420.734 170.707 421.473C169.224 422.952 168.236 424.924 166.259 425.664C166.506 425.91 166.259 425.91 166.259 426.157C169.966 426.896 172.931 424.924 175.896 422.952C176.884 422.213 177.873 421.473 179.108 421.72C179.355 421.473 179.355 421.227 179.355 420.98C178.861 419.994 177.625 419.255 177.625 418.022C178.12 417.529 178.614 417.529 179.108 418.022C179.849 418.761 180.591 419.501 181.826 419.008C182.567 418.762 183.309 419.501 183.803 419.994C186.274 422.459 188.992 422.213 191.71 420.734C194.428 419.255 197.146 418.022 200.111 417.529C201.346 417.282 202.088 417.529 202.829 418.268C205.547 420.487 208.018 423.199 210.983 425.171C211.23 425.171 211.23 424.924 211.477 424.678C212.466 423.445 211.971 422.213 210.736 421.227C209.253 419.994 208.018 418.761 207.029 417.036C206.288 415.557 206.288 414.817 207.524 413.585C209.253 412.106 210.983 411.12 213.207 411.12C212.713 408.654 211.971 406.189 210.489 403.971C209.748 402.738 209.748 401.999 210.242 401.013C211.971 396.822 214.442 392.878 218.643 390.412C219.137 389.919 219.631 389.919 220.125 389.673C219.878 389.673 219.878 389.426 219.878 389.18C218.643 389.673 217.16 389.426 215.925 390.166C214.442 391.152 211.971 389.426 211.477 387.701C211.23 386.961 210.983 386.222 211.23 385.729C211.724 383.017 211.724 380.552 211.724 378.087C211.724 377.594 211.724 376.854 212.218 376.854C213.948 377.101 215.184 375.868 216.666 375.375C217.16 375.375 217.654 375.622 218.149 375.868C219.384 374.389 218.396 372.663 218.89 371.184H218.149C216.419 371.184 216.419 369.705 216.666 368.719C216.913 367.24 217.407 366.008 218.643 365.021C219.796 364.035 220.125 362.803 219.631 361.324C219.384 360.091 218.643 358.859 219.384 357.626C218.396 357.626 217.654 358.119 217.16 359.105C216.913 359.845 216.666 360.338 216.172 360.584C215.184 361.324 214.442 361.324 213.701 360.091C213.207 359.598 212.96 358.859 212.466 358.366H211.971C210.736 360.338 210.242 362.556 209.006 364.282C208.759 364.775 208.512 365.515 208.018 366.008C207.524 366.994 206.782 367.24 206.288 366.008C206.041 365.268 205.794 364.775 204.806 365.268C203.817 365.761 205.053 366.254 204.806 366.747C205.547 367.487 206.535 367.733 207.524 367.98C206.371 368.801 205.3 368.555 204.311 367.24C202.829 365.515 202.088 363.296 202.582 361.077C202.582 360.338 203.076 360.338 203.57 360.338C203.57 359.598 203.076 359.105 203.57 358.612V358.119H203.076C199.617 358.119 198.381 355.407 196.899 352.942C196.157 351.956 196.404 350.97 196.404 349.738C196.652 348.505 196.404 347.272 194.922 346.779C194.675 346.779 194.428 346.286 194.181 346.04C191.957 343.082 189.733 339.877 187.509 336.919C186.768 336.179 186.768 335.44 187.509 334.454C188.992 332.728 189.239 330.51 189.486 328.291C189.98 324.593 191.463 321.882 193.934 319.416C195.416 317.937 195.91 316.705 195.91 314.733C195.91 311.528 197.393 309.063 200.111 307.337C200.605 308.077 201.099 308.816 202.088 309.309C202.829 308.57 203.323 307.83 203.57 306.844L203.323 306.598C202.005 306.433 201.593 305.776 202.088 304.626C202.582 303.64 202.335 303.147 201.346 302.9C200.605 302.654 199.864 302.654 199.123 302.654C198.381 302.654 197.64 302.9 197.146 302.407C196.404 301.667 195.663 300.681 194.675 302.654C193.934 303.886 191.957 303.393 190.227 301.914L189.733 302.407C189.733 303.886 190.227 305.119 190.227 306.598C190.474 309.063 188.992 310.295 186.768 310.295C186.027 310.049 183.309 310.542 182.814 311.035C182.32 311.528 181.579 311.281 180.838 311.528C180.343 312.268 180.838 313.254 179.849 313.747C178.367 313.5 177.378 314.24 176.637 315.226C175.402 316.705 173.919 316.951 171.942 317.198C167.742 317.691 165.271 315.472 163.541 312.268C163.294 312.021 163.294 311.528 162.8 311.775C159.835 312.761 158.352 311.035 157.117 308.816C156.87 308.57 156.375 308.57 156.128 308.323C155.387 309.309 155.881 310.542 155.634 311.528C155.387 312.268 156.128 312.761 156.87 312.761C157.858 313.007 158.599 313.254 159.093 313.993C159.588 314.24 159.835 314.979 159.588 314.979C157.858 315.965 159.588 317.444 158.846 318.43C158.352 319.17 158.352 320.156 158.599 320.649C159.341 322.621 157.611 322.621 156.87 323.607C156.87 323.854 156.375 323.854 156.128 323.854C153.163 322.128 149.457 321.635 148.468 317.444C147.727 315.226 145.256 314.24 143.032 313.747C141.303 313.5 139.82 313.254 139.326 311.281C139.326 310.542 138.338 310.542 137.843 311.035C137.102 311.775 136.361 312.268 135.373 312.761C134.137 313.254 133.89 314.24 134.137 315.472C134.384 317.198 134.878 318.923 135.373 320.403C136.114 322.375 137.596 324.1 136.608 326.319C133.89 326.319 133.396 326.072 132.902 324.1V323.854C132.407 322.621 134.631 321.389 133.149 320.403C131.913 319.663 131.666 318.43 131.419 317.198C130.925 315.719 129.936 314.486 128.701 313.747C125.489 311.775 124.253 308.57 124.5 304.872C124.5 304.133 124.253 303.393 124.253 302.654C124.253 301.667 124.253 300.681 125.736 300.188C127.713 299.695 127.713 299.449 129.195 301.914C130.184 300.928 128.948 299.942 129.195 298.956C129.936 297.23 130.678 295.258 131.172 293.286C131.666 291.56 132.16 290.081 133.89 289.095C134.878 288.356 134.631 287.123 135.373 286.384C137.596 284.165 138.832 281.453 137.843 278.249C137.843 277.756 138.091 277.509 138.338 277.263C139.82 276.03 141.056 274.551 141.55 272.579C141.55 271.839 142.291 271.1 143.032 270.853C143.28 270.607 143.774 270.36 144.021 270.36C146.492 270.114 146.739 267.895 147.48 265.923C147.727 265.183 147.233 264.444 146.739 263.704C145.998 262.718 145.256 261.979 145.256 260.5C145.256 258.035 143.032 257.048 141.056 256.555C139.82 256.062 139.079 256.062 138.832 254.583C138.585 253.597 137.596 252.858 136.855 252.118C135.62 250.886 135.867 249.653 136.608 248.667C137.843 247.188 137.596 245.709 137.349 244.23C137.102 243.244 136.855 242.504 136.855 241.518C136.855 240.039 136.114 238.806 136.114 237.327C135.867 235.848 137.596 235.109 136.855 233.63C136.608 233.137 137.349 232.644 137.843 232.397C138.585 231.904 139.326 231.658 140.067 231.165C139.573 230.671 138.585 230.918 138.338 230.178C137.349 228.206 137.596 226.481 137.102 224.509H136.608C136.114 225.248 135.62 225.988 136.114 226.974C136.361 227.713 136.608 228.699 135.867 229.439C135.62 229.685 135.62 229.932 135.62 230.178C136.114 231.411 136.361 232.397 135.125 233.383C134.384 233.876 134.137 234.862 133.89 235.848C133.396 237.081 133.396 238.56 132.16 239.299C131.666 239.792 131.419 240.039 130.925 240.532C131.913 242.258 131.419 244.23 131.419 245.955C131.419 246.695 130.925 247.434 131.666 248.174C132.16 248.667 131.913 249.16 131.419 249.407C130.925 249.653 130.431 249.653 129.936 249.16C129.936 248.913 129.689 248.667 129.689 248.42C129.689 246.448 128.207 245.709 126.477 245.216C125.489 244.969 124.995 244.476 125.489 243.244C125.983 241.765 125.571 240.532 124.253 239.546C124.253 240.286 124.253 240.779 124.006 241.272C123.759 241.765 123.265 241.518 123.018 241.025C122.277 240.779 121.782 240.286 120.794 240.286C119.806 240.286 119.064 240.039 119.559 238.806V238.313C117.335 236.834 118.817 234.862 118.817 233.137C118.817 232.89 119.064 232.397 119.064 232.151C118.076 229.932 119.312 228.453 120.3 226.727C120.547 226.234 120.547 225.988 120.794 225.495C120.547 225.495 120.547 225.248 120.3 225.002C119.312 225.741 119.312 226.974 118.323 227.713C117.088 228.699 116.099 229.439 115.111 227.96C114.37 228.453 114.864 228.946 114.864 229.439C115.111 231.658 115.852 233.876 115.852 236.095C115.852 238.067 117.335 239.546 118.323 241.272C118.817 242.011 119.312 242.751 119.559 243.737C119.806 245.709 119.559 246.448 117.582 246.941C116.099 247.434 115.111 248.174 114.617 249.653C113.875 252.118 112.393 254.09 112.887 256.802C112.887 257.048 112.64 257.295 112.887 257.541C114.123 259.514 112.64 260.993 112.146 262.718C111.652 264.69 110.663 266.416 110.169 268.388C109.922 269.374 109.428 270.114 108.934 270.853C111.157 272.579 111.405 274.058 110.169 276.03C109.922 276.523 109.428 276.77 109.428 277.263C109.181 278.988 107.945 279.235 106.71 278.988C105.227 278.495 103.992 278.988 102.509 279.481C100.78 280.221 99.7912 279.728 99.5441 277.756C99.297 275.783 99.297 273.565 100.532 271.593C100.78 271.1 101.027 270.607 101.521 270.36C103.498 269.621 103.25 268.142 103.25 266.662C103.003 265.183 102.262 263.704 103.25 262.225C102.262 259.76 103.992 258.035 104.486 255.816C104.98 254.337 106.216 253.351 105.474 251.625C105.227 250.886 106.463 250.639 106.71 249.9C107.204 248.914 108.192 247.927 108.192 246.695C104.98 242.997 104.486 241.025 106.71 237.327C106.463 237.081 106.216 236.834 105.968 236.588C105.474 237.081 104.733 237.081 104.486 236.341C103.498 233.137 103.498 230.425 106.216 228.699C107.204 227.22 107.945 225.988 108.934 224.755C109.181 224.262 109.675 223.523 110.416 224.262C110.663 224.509 110.91 225.002 111.157 224.262V223.523C109.675 222.537 110.416 221.304 110.663 220.071L110.416 219.825C109.922 219.825 109.675 220.564 109.181 220.318C108.687 220.071 108.934 219.578 108.934 219.332C108.934 218.839 109.181 218.099 109.181 217.36C108.934 217.113 108.687 216.867 108.439 216.62C107.451 216.62 106.957 216.127 106.957 215.141C106.957 213.662 106.463 211.936 107.698 210.704C107.945 210.704 107.698 210.211 107.698 209.964C107.204 209.718 107.698 208.485 106.71 208.732C106.216 208.732 105.968 208.485 106.216 207.992C106.216 207.746 106.463 207.499 106.71 207.253C106.71 207.006 106.957 207.006 107.204 207.006C109.675 206.76 110.663 206.513 111.652 205.774C111.899 205.281 112.146 205.034 112.393 204.541ZM112.393 204.541L112.64 204.788C112.393 204.788 112.393 204.541 112.393 204.541ZM155.634 530.679C155.469 530.843 155.469 530.843 155.634 530.679ZM155.634 530.679C155.469 530.679 155.469 530.679 155.634 530.679ZM53.8319 84.0204C54.3261 84.0204 54.8203 84.2669 55.3144 84.2669C55.8086 84.76 53.5848 85.9925 55.8086 85.746C56.3028 85.746 56.3028 86.239 56.3028 86.4856C56.5499 87.4716 57.5383 88.2112 58.5267 88.2112C61.2447 87.9646 62.7272 89.6902 64.2098 91.6623H63.7156C62.0683 91.3337 61.1623 91.8267 60.9976 93.1414C60.5034 93.3879 60.0092 93.6344 59.7621 94.1275C58.7738 95.1135 57.7854 96.3461 56.5499 97.3322C56.0557 96.5926 55.3144 95.36 54.5732 95.8531C53.5848 96.5926 54.8203 97.3322 55.3144 98.0717C55.5615 98.3182 55.8086 98.5647 55.8086 98.5647C55.8086 98.8112 56.0557 99.0578 56.3028 99.3043C56.3028 99.4686 56.3852 99.633 56.5499 99.7973C58.2796 100.537 58.0325 102.755 59.515 103.495C60.7505 103.248 60.9976 102.016 62.2331 102.016C62.7272 102.016 62.7272 101.523 62.7272 101.03H63.2214C63.9627 100.29 63.9627 98.3182 65.1982 98.5647C66.4336 98.8112 66.9278 98.0717 67.6691 97.8252C68.8222 97.4965 69.1516 96.9213 68.6575 96.0996C68.1633 95.6066 68.4104 94.6205 67.422 94.374C67.6691 93.881 67.1749 93.3879 67.9162 92.8949C68.6575 93.3879 69.8929 93.6345 69.8929 94.867C69.8929 95.6066 70.8813 96.0996 71.3755 96.3461C71.8697 96.5926 72.611 96.5926 72.858 96.0996C73.3522 95.6066 73.1051 94.867 72.3639 94.867C70.8813 94.374 71.8697 93.3879 71.8697 92.6484C72.0344 92.4841 72.1991 92.3197 72.3639 92.1554C72.6109 92.6484 72.611 93.1414 73.1051 92.8949C73.8464 92.6484 73.5993 91.9089 73.5993 91.4158C75.329 92.1554 76.5644 90.9228 77.7999 90.4298C80.0237 89.6902 80.2708 88.2112 80.2708 86.239C81.0121 86.4856 81.5063 86.239 81.2592 85.253C81.7534 85.253 82.0005 85.9925 82.4947 85.253C82.9889 84.5134 83.9772 83.7739 83.483 83.0344C82.7418 82.0483 83.2359 81.3088 83.2359 80.3227C82.9888 79.0901 83.2359 77.8576 81.5063 77.6111L81.2592 77.3645C81.2592 77.118 81.2592 76.625 81.5063 76.625C83.7301 76.625 83.483 74.6529 83.483 73.4203C83.483 72.9273 83.2359 72.4343 83.7301 71.9412H84.4714C85.4598 72.4343 85.7069 70.7087 86.9423 71.6947C89.1662 73.6668 89.1662 72.9273 90.8958 71.2017C91.6371 70.2156 91.8842 68.9831 92.3784 67.997C92.6255 67.504 92.3784 67.2575 92.1313 67.011C91.8842 66.7645 91.6371 67.011 91.39 67.011C90.6487 67.7505 89.9074 67.997 89.1662 68.7366C87.6836 70.4622 86.6952 70.2156 84.9656 68.49C86.4482 67.997 86.2011 66.2714 87.4365 65.7784C87.1894 64.0528 89.6604 64.5458 89.6604 63.0667C89.6604 62.5737 90.1545 61.8342 91.1429 61.5877C92.3784 61.3411 92.3784 61.0946 91.39 60.3551C90.4016 59.6155 90.1545 59.1225 90.6487 58.1365C90.8958 57.6434 91.1429 57.1504 91.39 56.6574C92.3784 54.9318 91.6371 53.2062 91.39 51.4806C91.1429 50.0015 89.9074 49.0155 88.4249 48.5224C87.4365 49.0155 88.1778 50.248 87.1894 50.7411C83.7301 52.9597 81.2592 54.6853 78.7883 57.1504C77.7999 58.383 76.5644 59.369 75.0819 60.3551C74.0935 60.8481 73.3522 60.3551 72.858 60.6016C71.3755 61.8342 69.8929 62.8202 68.1633 63.0667C67.422 63.3133 66.6807 64.2993 66.9278 65.7784C66.9278 67.504 68.9046 68.2435 68.9046 69.7226C68.9046 70.4622 68.4104 70.9552 67.6691 70.9552C66.9278 71.2017 65.9394 70.4622 65.4453 71.4482H64.2098C63.9627 71.4482 63.7156 71.4482 63.4685 71.6947C62.4801 71.2017 62.1507 70.7908 62.4801 70.4622C62.9743 70.2156 63.7156 70.4622 63.2214 69.4761C62.7272 68.9831 62.4801 67.504 61.4918 68.2435C60.5034 68.9831 60.0092 68.2435 59.7621 67.7505C58.7738 66.0249 58.2796 67.504 57.7854 67.997C56.797 68.7366 57.7854 70.2156 56.5499 70.9552C56.0557 70.9552 55.3144 71.2017 55.8086 71.6947C56.3028 72.6808 56.0557 73.6668 55.3144 74.1599C54.3261 74.6529 54.3261 75.3924 55.0674 76.132C55.5615 76.625 56.0557 77.6111 55.0674 78.1041C53.8319 78.5971 54.5732 79.0901 55.0674 79.3366C56.0557 79.8297 57.5383 80.0762 57.5383 81.8018C57.5383 82.2948 58.5267 82.2948 57.7854 82.7878C57.2912 83.2809 56.797 83.2809 56.3028 83.0344C55.5615 82.7878 55.3144 82.2948 54.8203 81.8018M194.922 228.946C195.169 228.946 195.416 228.946 195.663 229.192C195.416 229.192 195.169 229.192 194.922 228.946ZM381.477 549.414C381.23 549.66 380.983 549.66 380.736 549.907C380.983 549.66 381.23 549.414 381.477 549.414ZM381.477 550.4C381.23 550.646 380.736 550.646 380.489 550.893C380.489 550.646 380.736 550.4 381.477 550.4ZM94.108 357.897C93.8609 356.172 94.3551 355.186 95.8377 354.693C96.0848 354.693 96.3319 354.446 96.3319 354.2C97.0731 354.2 97.5673 354.446 98.3086 354.446C100.038 353.953 101.274 353.953 102.756 354.939C103.003 355.186 103.498 355.186 103.498 354.939C104.486 353.46 106.71 353.213 107.204 351.488C107.698 350.255 109.428 349.762 108.934 348.037C108.934 347.544 109.428 347.79 109.675 347.79C110.169 347.79 110.663 347.544 110.663 347.297C110.663 345.572 112.393 344.585 112.146 342.86C111.899 341.874 112.393 340.888 112.887 339.902C113.628 338.669 114.123 337.19 112.393 336.204C111.899 335.957 111.652 335.464 111.652 334.725C111.405 332.753 111.652 330.534 109.922 329.055C109.675 328.809 109.675 328.316 109.675 328.069C110.169 326.097 108.934 324.618 107.451 323.632C105.968 322.399 104.486 323.139 103.003 323.878C100.78 322.892 98.8028 323.139 97.0731 324.618C96.3319 325.111 95.8377 325.85 95.3435 326.59C94.8493 327.083 94.3551 327.083 93.8609 326.59C93.3667 326.097 92.6255 325.85 93.1197 325.111C94.3551 323.385 95.5906 321.413 97.8144 321.167C99.5441 320.92 100.532 320.181 101.521 318.948C103.25 316.976 102.756 314.757 102.015 312.785C101.274 310.813 100.532 310.32 98.3086 311.06C98.3086 310.567 98.0615 310.074 97.8144 309.581C97.0731 308.348 96.579 307.115 95.0964 306.622C94.3551 304.65 93.8609 302.432 91.6371 301.446C90.8958 301.199 90.8958 300.706 91.1429 299.967C91.39 299.473 91.6371 298.98 91.6371 298.241C92.1313 296.022 91.39 295.529 89.1662 295.283C88.9191 295.283 88.672 295.036 88.4249 295.036C88.1778 294.05 88.672 293.311 88.9191 292.571C90.1545 289.366 88.9191 286.655 86.9423 284.436C86.2011 283.45 84.9656 282.957 83.7301 283.697C82.7418 284.19 81.7534 284.19 81.0121 283.697C78.5412 282.711 76.0703 281.478 73.3522 281.971C73.1051 281.971 73.1051 281.724 72.858 281.724C71.8697 280.985 70.8813 281.478 70.14 282.218C69.3987 283.204 68.6575 283.697 67.6691 283.697C65.4453 283.697 63.4685 284.19 61.7389 285.915C61.4918 286.162 61.2447 286.162 60.9976 286.162C58.2796 286.655 55.5615 286.655 53.0906 284.929C52.8435 284.683 52.3493 284.436 51.8551 284.683C51.6081 286.162 51.361 287.887 51.361 289.366C51.361 291.092 49.8784 290.846 49.6313 292.078C49.1371 294.543 46.9133 295.529 44.4424 294.297C42.9598 293.557 41.7243 293.804 40.4889 294.543C39.7476 295.036 39.0063 295.776 38.5121 296.515C36.5354 298.734 35.2999 301.446 32.3348 302.432C31.8406 302.678 31.5935 303.171 31.5935 303.664C31.3464 305.39 29.8639 306.869 29.8639 308.594C29.8639 309.581 29.1226 310.074 28.1342 310.567C27.393 311.06 26.8988 311.553 27.3929 312.539C27.64 313.032 27.64 313.525 27.64 314.264C27.64 315.004 27.1459 315.497 26.4046 315.25C24.6749 314.511 23.1924 315.25 21.7098 315.99C19.9802 316.729 18.2505 317.716 16.2738 316.236C15.7796 315.743 15.0383 315.743 14.5441 316.236C13.8028 316.976 12.8145 317.222 11.8261 317.715C11.3319 317.962 11.3319 318.209 11.579 318.948C11.8261 320.427 13.3087 320.674 13.5557 321.413C14.0499 323.139 15.7796 322.399 16.768 323.139C18.2505 324.618 19.2389 323.139 20.4743 322.646C20.9685 323.878 20.4743 324.618 19.486 325.111C18.0034 325.85 16.768 326.836 16.0267 328.316C15.7796 329.055 15.0383 329.302 14.5441 329.302C12.8145 329.302 11.0848 329.548 9.60226 328.809C7.37843 328.069 6.39005 328.562 6.63715 331.027C6.63715 331.52 7.13133 332.26 6.39005 332.26C4.9075 332.26 4.16622 333.492 2.93075 333.985C1.69529 334.478 0.95401 335.464 1.94238 336.204C4.16622 337.683 3.42494 341.874 7.13133 342.12C7.13133 342.12 7.37843 342.367 7.37843 342.613C8.1197 344.092 9.35517 345.325 10.5906 346.804C11.3319 347.544 11.8261 348.283 11.8261 349.516C12.0732 351.734 12.8145 352.474 15.0383 352.72C16.2738 352.967 18.0034 352.72 18.2505 353.707C18.7447 355.186 20.2273 355.432 20.4743 355.925C20.7214 357.651 21.7098 357.897 23.1924 358.39C25.1691 359.13 26.8988 360.362 28.8755 358.144C29.6168 357.404 30.111 357.404 30.6052 358.883C30.8523 360.116 32.3348 360.609 33.5703 359.376H34.3116C36.2883 359.376 37.2767 358.883 37.2767 357.158C37.2767 355.186 38.265 354.693 39.7476 354.446C39.9947 354.446 40.4889 354.446 40.736 354.2C41.7243 354.2 41.9714 353.706 41.9714 352.72C42.2185 350.502 41.7243 348.53 39.5005 347.297C40.4889 347.051 40.4889 345.572 41.2302 345.325C43.7011 344.832 44.9365 342.613 46.4191 341.134C47.4075 340.148 48.1488 340.395 49.1371 340.888C51.6081 342.12 54.3261 346.558 53.8319 349.269C53.5848 350.748 53.0906 351.981 55.0674 352.474C55.3144 352.474 55.3144 353.213 55.3144 353.46C55.5615 354.2 55.8086 354.939 56.3028 354.939C57.7854 355.432 58.2796 356.418 58.5267 357.651H59.2679C59.7621 357.404 60.0092 356.172 60.9976 356.665C61.7389 356.911 61.986 357.651 62.2331 358.39C62.4801 359.376 62.4801 359.869 61.986 360.855C60.7505 363.321 61.2447 365.786 62.9743 368.004C63.2214 368.497 63.7156 368.744 64.2098 368.497C65.4453 367.758 67.1749 368.004 67.9162 366.772C68.6575 365.786 69.1516 366.032 70.14 366.279C73.5993 367.511 73.8464 367.265 74.3406 363.814C74.3406 363.814 74.5877 363.814 74.8348 363.567C75.329 363.814 76.0702 366.525 77.3057 363.814C77.3057 363.567 77.7999 363.567 78.047 363.814C79.0354 365.046 80.2708 364.553 81.5063 364.8C81.7534 365.046 82.0005 365.293 82.0005 365.539C82.0005 365.539 82.0005 365.786 82.2476 365.786C82.4947 366.525 83.2359 366.525 83.7301 366.772C84.9656 367.018 85.954 366.772 85.954 368.744C85.954 369.73 87.1894 369.976 88.1778 369.483C88.9191 368.99 89.6604 368.251 90.4016 367.758C93.1197 365.046 94.3551 361.841 94.108 357.897ZM80.5179 236.341H79.5296C79.2825 235.848 79.0354 235.355 78.5412 235.355C76.5644 235.848 75.8232 238.067 73.8464 238.806C73.5993 238.806 73.5993 239.299 73.5993 239.546C73.8464 240.532 73.3522 241.272 72.6109 242.011C71.8697 242.751 73.5993 243.49 72.858 244.476C72.611 244.723 72.858 245.216 72.6109 245.462C71.6226 246.941 71.1284 249.16 69.1516 250.393C70.3871 251.132 70.8813 252.858 72.3639 251.625C74.0935 250.146 76.0703 248.667 77.0586 246.448C77.3057 246.695 77.3057 246.941 77.5528 246.941C77.3057 247.927 78.047 248.174 78.7883 248.42C80.5179 249.16 81.0121 250.886 80.765 252.858C79.4472 252.529 78.6235 253.022 78.2941 254.337C78.2941 254.583 78.047 255.076 78.047 255.323C77.5528 257.048 78.047 257.541 79.7766 258.281C81.2592 259.021 82.0005 257.788 82.2476 256.802C82.7418 255.569 83.2359 254.583 84.7185 255.076C85.2127 255.323 85.954 255.076 86.4481 254.83C88.1778 253.844 89.4133 252.118 90.8958 251.132C91.39 250.886 91.1429 250.393 91.39 249.9C91.6371 247.188 90.4016 244.969 89.1662 242.751C89.4133 242.504 89.6604 242.258 89.9075 242.011C90.4016 242.258 90.6487 242.504 91.1429 242.504C94.3551 243.49 95.3435 242.751 94.8493 239.299C94.6022 238.067 95.0964 237.574 96.3319 237.327C97.3202 237.327 98.3086 236.588 98.3086 235.848C98.0615 234.123 99.297 232.89 99.7912 231.411C100.285 229.685 101.027 227.96 102.262 226.481C103.498 225.002 104.239 223.276 105.474 221.797C105.968 221.304 106.216 220.318 106.216 219.332C106.216 218.592 106.216 217.853 105.474 217.606C104.98 217.36 104.486 217.853 103.992 218.099C102.262 219.332 100.532 220.564 98.8028 221.797C96.826 223.276 94.6022 224.509 93.3667 226.974C92.8726 227.96 92.6255 228.699 93.3667 229.685V230.178C92.8726 230.425 92.1313 230.178 91.6371 230.671C90.1545 231.904 89.4133 233.383 88.9191 235.109H87.9307C87.6836 234.123 87.9307 233.383 88.1778 232.644C88.4249 231.411 87.9307 230.918 86.9423 231.411C85.7069 231.904 84.4714 232.151 83.483 233.137C82.4947 235.355 80.765 234.862 80.5179 236.341ZM141.797 367.98C142.291 367.487 143.032 367.24 143.28 367.98C143.774 369.459 145.256 368.226 145.503 368.473C146.986 370.198 146.986 368.226 147.233 367.733C148.221 365.515 149.704 364.035 152.175 363.542C152.669 363.542 153.163 363.049 153.163 362.803C152.916 361.077 154.152 360.831 155.14 360.091C155.634 359.598 155.881 359.105 156.128 358.366C156.87 355.9 157.611 353.189 160.576 351.956C160.329 350.97 159.588 350.724 158.846 350.477C156.623 349.491 156.128 348.012 156.87 345.793L157.611 344.314C157.858 343.328 157.364 342.835 156.375 343.082C153.905 343.821 151.434 344.561 149.704 346.533C149.21 347.026 148.963 347.519 148.963 348.012C148.716 349.738 147.727 350.97 147.233 352.449C146.739 354.421 145.75 355.654 143.774 356.147C142.785 356.394 142.291 357.133 142.044 358.119C141.797 359.598 142.044 361.077 141.55 362.31C140.809 364.282 139.573 366.008 139.079 367.98C140.067 369.212 141.056 368.966 141.797 367.98ZM125.242 251.379C123.759 248.914 120.794 248.667 118.817 250.639C118.57 250.886 118.076 251.379 117.829 251.625C115.605 253.351 114.864 256.062 116.099 258.035C117.582 260.746 117.088 263.704 118.57 266.416C119.559 268.388 120.3 269.621 122.524 270.114C122.771 270.607 123.018 270.36 123.512 270.36C125.489 270.114 127.466 270.607 128.701 268.388C128.948 267.649 128.948 267.156 128.207 266.662V264.444C128.454 264.444 128.948 264.69 129.195 264.69C129.689 264.69 129.689 264.197 129.442 263.951C128.454 262.965 128.701 260.993 126.971 260.253C126.23 260.007 126.477 259.267 126.724 258.528C127.466 256.062 126.477 253.597 125.242 251.379ZM299.442 603.918C297.96 603.918 296.971 603.425 295.736 602.685C295.489 602.439 292.277 602.192 292.029 602.439C291.041 603.178 290.3 603.918 289.311 604.658C289.064 604.658 288.817 604.658 288.323 604.904C287.582 605.151 286.593 605.89 285.852 605.89C283.381 606.137 282.887 608.109 281.899 610.081C284.122 609.095 286.099 609.095 287.582 611.067C287.829 611.313 288.076 611.313 288.323 611.56C290.547 612.053 292.029 613.286 293.265 615.011C293.512 615.504 294.006 615.997 294.747 615.751C296.971 615.011 299.442 614.765 300.184 612.053C300.431 611.313 300.431 610.081 301.419 609.834C302.902 609.588 303.396 608.355 304.137 607.369C302.902 605.644 301.913 603.671 299.442 603.918ZM39.9947 113.824L40.2418 114.07C40.9831 114.563 40.9831 115.796 42.2185 115.55C41.7243 117.029 43.454 117.522 43.454 118.754C43.454 119.001 43.454 119.247 43.9482 119.494V119.987C43.7011 119.987 43.454 120.233 43.454 120.726C41.4772 121.712 41.7243 121.959 42.2185 123.931C42.7127 125.164 43.454 125.657 44.4424 126.396C43.454 127.136 42.7127 126.889 41.7243 127.136C40.736 127.382 40.2418 127.629 40.9831 128.615C42.2185 130.833 41.7243 132.805 40.736 135.024C39.9947 136.503 39.2534 138.229 40.2418 139.954C40.4889 140.201 40.4889 140.694 40.4889 140.94C39.9947 143.159 40.9831 145.378 41.7243 147.35C42.2185 148.582 42.9598 149.075 43.7011 148.582C45.1836 147.843 46.172 148.582 47.1604 149.322C47.984 147.843 47.9017 146.775 46.9133 146.117C46.6662 145.871 46.172 145.871 46.172 145.378C46.9133 145.131 47.1604 144.885 47.1604 144.145C47.1604 142.42 47.1604 140.94 45.4307 139.954C46.9133 139.954 47.1604 138.968 47.4075 137.982C47.6546 137.489 47.6546 136.75 48.1488 136.257C49.1371 135.271 49.1371 134.285 48.1488 133.299V132.559C48.3958 132.066 49.1371 131.573 48.89 131.08C48.6429 130.587 48.1488 130.833 47.6546 130.833C47.1604 129.601 46.9133 128.368 45.6778 127.629H47.9017C48.1488 128.122 48.3958 128.861 48.89 128.615C49.6313 128.368 50.6197 127.629 50.1255 126.643C49.8784 125.903 49.8784 124.917 49.1371 124.424V123.438C49.8784 123.684 49.1371 121.712 50.3726 122.698C51.1139 123.191 51.6081 121.466 52.3493 120.973C52.5964 120.726 52.1022 120.233 51.8551 120.233V119.74C52.3493 119.247 52.8435 118.754 52.5964 117.768C52.3493 116.782 52.5964 116.043 53.5848 115.796C54.5732 115.303 54.079 114.317 54.3261 113.577C54.5732 113.084 55.0674 112.591 55.3144 111.852C55.8086 110.866 55.0674 109.387 54.079 109.633C52.1022 110.126 51.8551 109.633 52.1022 107.908C52.1022 107.415 51.6081 106.922 51.1139 106.675C51.6081 106.182 51.8551 105.442 52.5964 104.949C53.3377 104.456 52.8435 103.47 52.1022 103.224C51.6081 102.977 51.1139 103.224 50.6197 103.717C49.3842 104.703 50.3726 106.182 49.3842 107.168C48.6429 107.415 47.9017 107.908 47.6546 108.894C47.4075 109.633 47.1604 109.387 46.6662 109.387C46.172 109.387 45.9249 108.894 45.9249 108.401C45.9249 108.154 46.172 107.661 46.4191 107.415C46.4191 107.168 46.4191 106.922 46.172 106.675C45.9249 106.429 45.6778 106.675 45.4307 106.922C45.1836 107.168 44.9365 107.415 44.6895 107.908H43.7011C43.2069 107.661 42.4656 107.908 41.9714 107.908C41.2302 107.908 40.2418 107.661 39.7476 108.401C39.2534 108.647 39.2534 109.14 39.2534 109.633C38.7592 110.866 37.0296 111.112 37.2767 112.345C37.5238 112.591 39.2534 112.591 39.9947 113.824ZM194.181 25.8185C195.91 26.8046 196.404 28.7767 197.64 30.2558C196.652 32.2279 198.381 31.7348 199.123 31.9814C200.358 32.7209 201.593 31.7348 202.829 31.7348C204.559 31.9814 205.053 30.9953 204.806 29.7627C206.123 29.7627 206.947 28.8588 207.277 27.0511C206.535 26.8046 205.794 26.8046 205.3 27.5441C205.053 27.5441 204.559 27.5441 204.311 27.2976C203.076 26.3115 203.076 27.2976 203.076 28.0371H202.582C202.582 26.065 201.841 24.3394 199.864 23.3534C199.37 23.1069 199.123 22.8603 198.875 22.3673C199.123 22.1208 199.37 22.1208 199.617 21.8743C200.111 21.3813 200.111 20.8882 199.617 20.6417C198.628 20.1487 199.37 19.6557 199.617 19.1626C200.111 18.9161 200.605 18.6696 200.852 19.1626C201.099 19.6557 200.852 20.1487 201.099 20.6417C201.346 22.8603 201.593 23.1069 204.064 22.8603C206.535 22.6138 208.265 21.1347 210.489 20.1487C210.736 21.3813 211.23 22.1208 211.724 23.1069C211.971 23.5999 212.218 24.3394 212.96 24.0929C214.442 23.8464 215.184 24.8325 216.419 25.3255C217.16 23.3534 218.396 22.3673 220.125 21.8743C221.114 21.6278 221.608 19.9022 221.114 19.1626C220.62 18.1766 219.631 18.4231 218.89 18.9161C218.149 19.1626 217.654 19.1626 217.16 19.4091V18.6696C217.16 18.1766 217.407 17.6836 216.666 17.6836C215.184 17.1905 214.442 18.1766 213.454 18.9161C212.713 18.1766 213.701 17.6836 213.454 17.1905C212.96 16.6975 213.701 15.4649 212.713 15.2184C211.971 14.9719 211.477 15.4649 211.23 16.2045C210.983 16.451 210.736 16.6975 210.242 16.451C209.253 15.4649 208.265 14.7254 207.029 16.2045C206.782 16.451 206.288 16.2045 206.041 15.958C205.794 15.4649 206.041 14.9719 206.288 14.9719C207.277 14.9719 207.029 13.4928 208.265 13.7393C209.253 13.9858 209.253 12.2602 209.747 11.2742C209.747 11.2742 209.995 11.0277 210.242 11.0277C210.736 11.0277 211.23 10.7812 210.983 10.2881C210.736 10.0416 210.242 9.5486 209.747 9.79511C209.253 10.0416 209.006 10.7812 208.512 10.0416C208.512 9.5486 207.524 8.80906 208.512 8.31603C209.253 8.31603 210.242 8.56254 210.736 7.823C211.23 7.823 211.477 7.57649 211.724 7.32997C212.466 6.83695 212.218 6.0974 212.466 5.60438C212.96 4.37181 212.466 3.87878 211.23 3.87878H210.489C210.489 3.13924 209.995 2.64621 209.5 2.89273C208.018 3.87878 207.277 2.64621 206.535 1.66016C204.888 2.81055 204.641 4.20747 205.794 5.85089C206.041 6.0974 206.288 6.34392 206.288 6.83695H205.3C204.806 6.59043 204.311 6.34392 203.817 6.0974C202.088 4.12529 199.864 5.11135 198.134 5.85089C196.899 6.59043 196.157 8.31603 196.157 10.0416C196.157 11.0277 195.91 12.2602 195.91 13.2463C195.663 15.4649 194.922 18.1766 197.887 19.4091C198.134 19.9022 198.134 20.6417 197.887 21.1347C194.922 21.1347 194.428 21.3813 193.686 24.3394C193.439 25.3255 193.686 25.572 194.181 25.8185ZM82.2476 152.773C81.7534 152.527 81.5063 152.773 81.2592 153.02C79.7766 153.759 78.5412 154.745 77.3057 155.978C76.0702 157.21 76.0702 156.964 77.3057 157.95C78.5412 158.936 80.2708 159.429 80.5179 161.401C80.5179 161.894 81.5063 162.634 82.2476 162.634C82.7418 162.634 82.9888 162.387 83.2359 161.894C83.9772 160.662 84.7185 159.429 84.9656 158.196C85.7069 155.978 84.2243 153.266 82.2476 152.773ZM59.7621 189.997C59.515 190.243 59.2679 190.243 59.0208 189.997C57.2912 188.025 56.797 189.997 55.8086 190.983C55.5615 191.229 54.8203 191.476 55.0674 191.969C55.3144 192.955 55.5615 193.941 55.5615 195.173C56.797 194.927 57.0441 195.913 57.7854 196.406C58.2796 196.653 58.7737 196.16 59.0208 195.913C59.2679 195.42 59.2679 194.68 59.515 193.941C59.7621 193.448 60.0092 192.955 60.7505 193.201C62.7272 193.941 62.9743 192.955 62.9743 191.476C62.9743 190.49 63.9627 190.983 64.4569 190.983C64.704 191.476 63.7156 191.722 64.2098 192.215L64.704 192.462C65.1982 192.215 64.9511 191.722 64.9511 191.229C67.6691 190.736 65.4453 188.518 66.4336 187.532C64.4569 189.011 61.7389 188.518 59.7621 189.997ZM34.3116 161.401C34.0645 161.401 33.8174 161.401 33.5703 161.648C33.0761 161.648 33.0761 162.141 33.0761 162.387C33.0761 162.634 33.3232 162.634 33.5703 162.634H34.0645C34.3116 162.88 34.5586 163.127 34.5586 163.127C35.0528 163.373 35.0528 164.359 35.547 164.113C36.2883 163.866 36.2883 163.127 36.2883 162.634C36.0412 162.141 35.7941 161.894 35.547 161.401C35.7941 160.662 37.2767 160.415 36.7825 159.182C38.5121 159.429 39.2534 157.95 40.2418 156.964C41.2301 155.731 41.4772 154.992 40.736 154.006C39.9947 153.266 39.7476 152.773 39.7476 151.787C39.7476 151.294 39.7476 150.554 38.7592 150.801C38.5121 152.28 38.7592 154.006 36.2883 153.759C36.0412 153.759 36.0412 154.252 35.7941 154.745C35.547 155.238 35.7941 155.978 35.2999 156.471C33.8174 157.703 33.8174 159.676 34.3116 161.401ZM67.1749 186.299C66.9278 186.299 66.9278 186.792 66.9278 187.039C66.9278 187.285 66.9278 187.532 67.1749 187.778C67.422 188.025 67.9162 188.025 68.1633 187.532C68.6575 186.299 69.8929 187.532 70.3871 186.792C71.3755 187.285 72.1168 187.039 72.6109 186.546C73.8464 184.573 75.5761 183.341 76.5644 181.122C76.8115 180.629 77.0586 180.136 76.8115 179.643C76.3173 178.904 75.5761 179.397 75.0819 179.643C74.8348 179.643 74.5877 179.89 74.3406 180.136C70.8813 181.369 69.6458 184.573 67.1749 186.299ZM213.701 29.5162C214.195 28.5302 214.442 27.7906 214.936 27.0511C215.184 26.8046 214.195 25.8185 213.701 25.079C213.207 26.558 210.489 25.8185 211.971 28.2836H209.253C208.759 28.2836 209.006 28.7767 209.253 29.2697C208.265 29.5162 207.524 30.0092 208.759 30.9953C209.748 31.7348 210.489 31.9814 209.747 33.4604C209.253 34.4465 210.242 35.186 211.23 35.4325C211.724 35.6791 212.713 35.6791 213.207 34.693C213.454 33.9535 213.948 33.2139 212.713 32.4744C211.971 32.2279 212.466 31.7348 212.466 30.9953C212.713 30.5023 213.454 30.2558 213.701 29.5162ZM100.78 254.361C101.521 254.608 102.756 254.115 102.756 253.622C103.003 251.65 104.486 250.417 104.733 248.692C104.733 248.199 104.733 247.952 104.239 247.706C103.992 247.706 103.25 247.459 103.25 247.706C102.262 249.431 100.038 250.417 100.285 252.143C100.532 253.375 99.7912 254.115 100.78 254.361ZM114.37 532.922C113.628 532.676 113.381 533.169 113.134 533.662C112.887 534.155 113.381 534.401 113.875 534.648C114.37 534.648 114.864 534.894 115.358 534.155C115.358 533.662 115.111 533.169 114.37 532.922ZM140.314 541.057C140.314 540.893 140.314 540.893 140.314 541.057ZM141.056 542.29C141.55 542.29 142.291 542.043 142.044 541.303C141.797 540.564 141.056 540.81 140.561 541.057C139.82 541.797 140.314 542.29 141.056 542.29ZM137.596 460.422C138.338 460.176 138.585 459.929 138.585 459.19C138.585 458.697 138.091 458.45 137.843 458.697C137.349 458.943 137.102 459.436 137.102 459.929C137.102 460.176 137.596 460.422 137.596 460.422ZM137.596 368.99C137.596 369.155 137.679 369.319 137.843 369.483C138.338 369.73 138.832 369.483 139.079 369.237C139.573 368.99 139.326 368.497 139.079 368.004H138.338C137.843 368.251 137.349 368.497 137.596 368.99ZM114.37 536.62C114.37 536.866 114.617 537.113 114.864 537.113C115.358 537.113 115.605 536.62 115.605 536.127L115.111 535.88C114.617 535.88 114.37 535.88 114.37 536.62Z" stroke="#282828" stroke-width="1.86229" stroke-linecap="round" stroke-linejoin="round"/>
</svg>
